<svg xmlns="http://www.w3.org/2000/svg" height="800" width="1200" viewBox="-17.550015 -19.364875 152.10013 116.18925"><path d="M71.7068 9.0087l-2.1475 4.3575-6.8088.1625s-2.1275 0-3.5787 2.2913l-7.0963 12.885s-.4087.695-1.0837.715l-5.5625-.2863s-.5925.0625-.1225-.7762c0 0 5.07-10.4325 9.14-17.0175 0 0 .985-2.1 4.2-2.23 0 0 5.2312-.205 13.06-.1013zm-15.6 13.6075L57.713 19.48s.1825-.3375.7788-.3375c.595 0 8.0875-.1038 8.0875-.1038s.3625-.025.1812.3638l-1.7362 3.2925s-.0775.2062-.5713.2062l-8.2175.1038s-.285-.0263-.1287-.3888zm21.53-3.4812c0 10.5687-8.5675 19.1362-19.1363 19.1362-10.5687 0-19.1362-8.5675-19.1362-19.1362C39.3643 8.5675 47.9318 0 58.5005 0c10.5688 0 19.1363 8.5675 19.1363 19.135zm-2.475 0c0 9.2012-7.4588 16.6612-16.6613 16.6612-9.2012 0-16.6612-7.46-16.6612-16.6612 0-9.2013 7.46-16.66 16.6612-16.66 9.2025 0 16.6613 7.4587 16.6613 16.66" fill="#176fc1" fill-rule="evenodd"/><path d="M24.8196 77.2882c-.0225-.1475-.0462-.2887-.0775-.4262-.03-.1363-.0637-.2613-.1062-.3763l-1.9113-5.845-.3875 4.5525c-.0187.2288-.0375.525-.0587.8888-.02.3662-.0375.7687-.0525 1.2062h-1.0063c.1363-.9325.2613-2.04.3713-3.3237.1112-1.2838.2012-2.675.2712-4.175h1.63c.0388.1662.0738.3225.1088.47.035.1475.0712.285.1075.415l1.8912 5.8662 2.355-5.6175c.0738-.1775.1463-.3575.215-.545.07-.1875.14-.3837.2063-.5887h1.62c-.0238.3825-.0425.825-.0613 1.3212a7.4732 7.4732 0 00-.005.2325l-.1487 4.28c0 .0338-.0025.0813-.0063.1438a2.7046 2.7046 0 00-.0062.14c0 .2362.0025.4675.0075.6975.0062.23.0162.4587.025.6837h-1.095c.0225-.2775.0437-.5375.065-.7825.02-.2437.035-.445.0462-.5987l.1438-3.485c.0112-.2263.0187-.4125.0225-.5625a17.402 17.402 0 00.0062-.4275c0-.085-.0025-.2175-.0062-.3988a20.3717 20.3717 0 01-.005-.415l-2.3938 5.7625a4.6928 4.6928 0 00-.1475.4013 93.511 93.511 0 00-.1587.5062zm13.4775-3.5675c0 .94.2625 1.665.7863 2.1713.5225.5075 1.27.76 2.24.76.9762 0 1.725-.2813 2.2437-.8438.52-.5625.78-1.3725.78-2.4287 0-.955-.26-1.6875-.78-2.1938-.5187-.5075-1.2675-.76-2.2437-.76-.985 0-1.735.2813-2.2513.8438-.5162.5625-.775 1.3787-.775 2.4512zm2.8438 3.7275c-1.2138 0-2.1638-.33-2.8525-.9887-.6875-.66-1.0313-1.5738-1.0313-2.7388 0-1.2887.3663-2.2937 1.1013-3.01.7337-.7175 1.765-1.0762 3.0912-1.0762 1.2425 0 2.2088.3325 2.9013.995.6912.6637 1.0362 1.5925 1.0362 2.7875 0 1.2725-.37 2.2612-1.1112 2.9687-.7425.7088-1.7863 1.0625-3.135 1.0625zm12.9125-.16c.0862-.7812.165-1.7612.2387-2.9375.0738-1.175.1313-2.445.1775-3.8137-.4875.0075-.91.0187-1.2662.0337-.3588.0138-.6838.0338-.975.0613l.0337-.8425h5.425l-.0225.8362c-.2137-.0225-.4662-.04-.7562-.0537-.2913-.0125-.7625-.0225-1.4163-.03l-.2487 4.2962a9.634 9.634 0 00-.0288.5875 50.441 50.441 0 00-.0062.8888c0 .2112.0025.3887.005.5375.0012.1475.0012.2925.0012.4362zm11.155-3.5675c0 .94.2625 1.665.785 2.1713.5225.5075 1.27.76 2.2412.76.975 0 1.725-.2813 2.2438-.8438.5187-.5625.7787-1.3725.7787-2.4287 0-.955-.26-1.6875-.7787-2.1938-.5188-.5075-1.2688-.76-2.2438-.76-.9862 0-1.735.2813-2.2525.8438-.515.5625-.7737 1.3787-.7737 2.4512zm2.8425 3.7275c-1.2138 0-2.1638-.33-2.8525-.9887-.6863-.66-1.03-1.5738-1.03-2.7388 0-1.2887.3662-2.2937 1.1-3.01.735-.7175 1.765-1.0762 3.0925-1.0762 1.2412 0 2.2075.3325 2.9.995.6912.6637 1.0362 1.5925 1.0362 2.7875 0 1.2725-.3687 2.2612-1.1112 2.9687-.7413.7088-1.785 1.0625-3.135 1.0625zm11.3712-.16c.1038-.91.1888-2.0062.255-3.2875.0663-1.2825.11-2.6825.1325-4.2062l2.6363-.005c.8162 0 1.3887.1375 1.72.415.3325.2762.4975.73.4975 1.365 0 .6337-.1963 1.145-.5888 1.5337-.3925.39-.945.6175-1.6612.6838l2.0612 3.5012H83.271a13.3865 13.3865 0 00-.3513-.695 20.9085 20.9085 0 00-.4287-.7437l-1.63-2.7438c.0862.0038.19.0088.305.015a7.62 7.62 0 00.2137.0075c.7513 0 1.3163-.1225 1.6913-.37.3762-.2475.565-.6175.565-1.1112 0-.3988-.1063-.6763-.3163-.835-.2087-.1575-.6562-.2375-1.3375-.2375h-1.1987c-.015.1475-.0288.3112-.04.4925-.0113.18-.025.415-.0375.7062l-.1288 3.0813c-.0187.48-.0325.9212-.0425 1.33-.0112.4075-.0212.775-.0287 1.1037zm11.9225-.2925l-.055-.9837c.4988.2625.9013.44 1.2063.5325.3062.095.6062.1412.9025.1412.4137 0 .7387-.0862.9787-.2625.2388-.175.36-.415.36-.7212 0-.1875-.06-.3763-.18-.5638-.12-.1887-.3112-.3962-.5737-.625l-1.3213-1.145c-.46-.3987-.7662-.7262-.9125-.9837-.1475-.2588-.2212-.5438-.2212-.8588 0-.5775.2012-1.0337.605-1.3687.405-.3338.9575-.5 1.6637-.5.2975 0 .5925.0275.8825.08.2925.055.5638.1325.8138.235l.0887.885c-.3975-.1425-.7412-.2463-1.0275-.3125-.2875-.0638-.5475-.0963-.78-.0963-.3837 0-.6912.0925-.9237.2775-.2313.1825-.3488.4188-.3488.7075 0 .1725.0513.34.1525.5025.1.1625.2738.3513.5175.5638l1.47 1.2775c.3913.3362.6688.6425.8325.9175.165.2775.2463.5725.2463.885 0 .58-.205 1.0362-.6125 1.375-.4075.3375-.9625.505-1.6663.505a4.692 4.692 0 01-1.04-.1188c-.355-.0787-.7062-.1937-1.0575-.345"/><path d="M.0001 65.6319h117v1.0025h-117z" fill-rule="evenodd"/><path d="M32.2513 42.7297c7.97 0 14.4712 4.4313 14.4712 9.865 0 5.4338-6.5012 9.865-14.4712 9.865s-14.47-4.4312-14.47-9.865c0-5.4337 6.5-9.865 14.47-9.865zm40.8325 19.385h-8.1125l-4.0575-6.075c-.6088-.835-1.325-1.8537-1.7638-1.79l-2.08-.0125v7.8775h-7.4787V43.2322h11.0625c.6512 0 1.2637.01 1.8375.0313.5725.02 1.2575.07 2.0525.15a14.194 14.194 0 012.0525.3625c2.2375.5675 4.3387 2.22 4.3387 4.7925 0 2.5725-2.1212 4.1262-4.3787 4.6725zm-9.9813-13.5462c-.0362-1.5975-2.0137-2.155-2.5-2.155H57.07v4.62h3.5325c1.4388.0637 2.535-.8663 2.5-2.465zM99.9763 62.186V43.291H117v3.9387h-10.0887v3.4825H117v3.8713h-10.0887v3.4737H117v4.1288zM0 62.1072V43.291h16.9088v3.9462H6.8638v3.7913h7.5412v3.64H6.8638v7.4387zm95.1475-12.5637c-3.1812-2.2375-11.965-3.4513-13.3175 2.7937 0 5.8938 7.9613 6.44 11.9725 3.955l3.32 3.3725c-7.8025 5.8525-24.0062 2.78-23.935-6.8737.81-11.5063 18.3688-11.5813 24.6188-7.2125zm-62.8962-1.1913c3.81 0 6.9175 1.905 6.9175 4.2425 0 2.3363-3.1075 4.2413-6.9175 4.2413-3.81 0-6.9175-1.905-6.9175-4.2413 0-2.3375 3.1075-4.2425 6.9175-4.2425" fill="#176fc1" fill-rule="evenodd"/></svg>