<svg xmlns="http://www.w3.org/2000/svg" height="800" width="1200" viewBox="-19.899 -25.06975 172.458 150.4185"><path d="M0 78.251h132.66V0H0z" fill="navy"/><path d="M8.341 70.66h14.785V11.855H8.341zm51.278 0h14.785V11.855H59.619zm51.414 0h14.785V11.855h-14.785z" fill="#fff"/><path d="M26.269 38.839l15.064-13.591 15.29 13.25v13.87l-15.177-13.87L26.27 52.482V38.84m81.669-13.546L92.875 38.885l-15.29-13.251V11.765l15.176 13.869L107.94 11.65v13.643" fill="#ff0"/><path d="M.145 99.987v-16.11h1.571v6.345h3.056v-6.345h1.571v16.11h-1.57v-7.043H1.715v7.043H.145" fill="navy"/><path d="M9.45 86.734H7.967v-2.857H9.45zm-1.484 0zm1.485 13.253H7.966V88.31H9.45z" fill-rule="evenodd" fill="navy"/><path d="M16.086 99.987H14.6v-5.95c0-1.259-.032-2.074-.096-2.443-.064-.37-.168-.657-.312-.862-.145-.205-.318-.308-.52-.308-.26 0-.494.147-.7.44-.206.293-.348.68-.424 1.163-.077.484-.115 1.376-.115 2.68v5.28h-1.485V88.309h1.376v1.714c.493-1.307 1.114-1.961 1.862-1.961.33 0 .63.122.904.369.274.245.48.557.62.938.14.38.238.813.292 1.295.055.484.083 1.175.083 2.077v7.246" fill="navy"/><path d="M22.754 99.987h-1.376v-1.714c-.23.666-.502 1.168-.815 1.504-.313.335-.629.502-.947.502-.648 0-1.202-.54-1.664-1.623-.462-1.083-.692-2.592-.692-4.529 0-1.981.224-3.488.674-4.519.449-1.03 1.016-1.546 1.702-1.546.63 0 1.174.542 1.633 1.626v-5.811h1.485zm-3.966-6.065c0 1.25.082 2.155.248 2.714.24.808.574 1.213 1.003 1.213.342 0 .632-.303.872-.91.239-.606.358-1.513.358-2.72 0-1.346-.116-2.315-.348-2.906-.232-.592-.53-.889-.892-.889-.353 0-.647.293-.885.878s-.356 1.457-.356 2.62" fill-rule="evenodd" fill="navy"/><path d="M27.938 99.987v-1.746c-.206.622-.475 1.117-.809 1.486-.334.369-.687.552-1.058.552-.378 0-.717-.172-1.018-.517-.3-.346-.518-.83-.652-1.455-.135-.625-.202-1.489-.202-2.591v-7.407h1.485v5.378c0 1.645.027 2.652.082 3.024.055.371.155.665.3.881.145.216.33.325.553.325.254 0 .483-.145.685-.435.202-.29.34-.65.414-1.08.074-.43.111-1.481.111-3.156v-4.937h1.485v11.678h-1.376m2.377-3.285l1.495-.473c.064.597.192 1.05.387 1.36.194.308.465.463.814.463.385 0 .675-.146.868-.441.131-.205.196-.48.196-.825a1.41 1.41 0 00-.106-.584c-.074-.146-.24-.283-.498-.408-1.2-.55-1.962-1.052-2.283-1.508-.445-.632-.667-1.509-.667-2.633 0-1.014.192-1.865.577-2.556.384-.69.98-1.035 1.79-1.035.769 0 1.34.261 1.714.785.374.522.632 1.296.774 2.32l-1.398.54c-.06-.458-.175-.809-.344-1.053-.168-.243-.408-.365-.72-.365-.395 0-.676.114-.847.342-.114.161-.17.371-.17.627 0 .22.05.408.149.561.134.207.599.497 1.393.87.794.375 1.35.833 1.664 1.377.312.548.468 1.315.468 2.298 0 1.07-.216 1.99-.647 2.76-.431.77-1.068 1.155-1.913 1.155-.766 0-1.372-.32-1.82-.962-.446-.643-.738-1.514-.876-2.615m9.133-8.392v2.452h-1.019v4.73c0 .959.01 1.517.029 1.675a.89.89 0 00.133.392c.069.104.153.155.252.155.138 0 .337-.098.6-.297l.124 2.4a1.708 1.708 0 01-1.172.462 1.07 1.07 0 01-.722-.28 1.649 1.649 0 01-.473-.73c-.1-.298-.17-.7-.208-1.21-.032-.36-.048-1.088-.048-2.185v-5.112h-.682v-2.453h.682v-2.317l1.485-1.823v4.14h1.019" fill="navy"/><path d="M41.334 91.91l-1.344-.496c.152-1.14.413-1.983.784-2.53.37-.548.92-.822 1.65-.822.664 0 1.159.162 1.483.489.325.325.553.738.685 1.241.133.501.199 1.421.199 2.761l-.022 3.601c0 1.025.024 1.782.07 2.268.048.487.137 1.009.266 1.565h-1.474a21.37 21.37 0 01-.142-.901 9.797 9.797 0 00-.053-.359c-.253.517-.524.905-.812 1.164-.289.258-.596.388-.923.388-.577 0-1.032-.326-1.364-.977-.332-.651-.498-1.475-.498-2.471 0-.659.075-1.247.227-1.763.151-.516.364-.912.637-1.186.273-.275.667-.515 1.182-.72.694-.27 1.175-.524 1.443-.758v-.31c0-.602-.07-1.03-.213-1.286-.14-.256-.408-.384-.8-.384a.709.709 0 00-.62.33c-.15.22-.269.604-.361 1.155zm1.994 2.497c-.19.131-.492.289-.904.472-.413.183-.683.363-.81.538-.194.286-.29.647-.29 1.087 0 .433.077.805.232 1.12.155.315.352.473.593.473.268 0 .523-.184.766-.55a2.48 2.48 0 00.355-1.02c.039-.264.058-.766.058-1.505v-.615" fill-rule="evenodd" fill="navy"/><path d="M51.377 99.987h-1.484v-5.95c0-1.259-.032-2.074-.097-2.443-.063-.37-.168-.657-.311-.862-.145-.205-.318-.308-.521-.308-.26 0-.493.147-.7.44-.206.293-.347.68-.424 1.163-.076.484-.115 1.376-.115 2.68v5.28h-1.484V88.309h1.376v1.714c.493-1.307 1.113-1.961 1.862-1.961.33 0 .63.122.904.369a2.3 2.3 0 01.62.938c.14.38.237.813.292 1.295.055.484.082 1.175.082 2.077v7.246m4.504 0v-16.11h2.353l1.392 10.989L61 83.877h2.358v16.11h-1.452L61.9 87.306l-1.53 12.681h-1.509L57.34 87.306l-.005 12.681H55.88" fill="navy"/><path d="M64.584 94.006c0-1.028.122-2.022.365-2.983.243-.961.588-1.695 1.034-2.201.446-.506.945-.76 1.494-.76.85 0 1.547.574 2.09 1.722.543 1.15.815 2.6.815 4.354 0 1.768-.274 3.234-.823 4.398-.548 1.162-1.239 1.743-2.07 1.743-.515 0-1.007-.242-1.474-.726-.467-.484-.823-1.194-1.066-2.13-.243-.935-.365-2.075-.365-3.417zm1.528.165c0 1.16.132 2.047.396 2.663.264.618.59.925.978.925.387 0 .712-.307.974-.925.263-.616.394-1.51.394-2.686 0-1.144-.131-2.025-.394-2.641-.262-.616-.587-.925-.974-.925-.388 0-.714.309-.978.925-.264.616-.396 1.505-.396 2.664" fill-rule="evenodd" fill="navy"/><path d="M74.124 88.31v2.452h-1.019v4.73c0 .959.01 1.517.03 1.675a.89.89 0 00.132.392c.069.104.153.155.253.155.138 0 .337-.098.599-.297l.124 2.4a1.708 1.708 0 01-1.171.462 1.07 1.07 0 01-.723-.28 1.649 1.649 0 01-.472-.73c-.1-.298-.17-.7-.209-1.21-.032-.36-.047-1.088-.047-2.185v-5.112h-.683v-2.453h.683v-2.317l1.484-1.823v4.14h1.02" fill="navy"/><path d="M74.83 94.006c0-1.028.12-2.022.364-2.983.243-.961.588-1.695 1.034-2.201.446-.506.944-.76 1.495-.76.85 0 1.546.574 2.09 1.722.542 1.15.814 2.6.814 4.354 0 1.768-.274 3.234-.823 4.398-.548 1.162-1.239 1.743-2.07 1.743-.515 0-1.007-.242-1.474-.726-.467-.484-.823-1.194-1.066-2.13-.243-.935-.365-2.075-.365-3.417zm1.527.165c0 1.16.132 2.047.396 2.663.265.618.59.925.978.925.387 0 .712-.307.974-.925.263-.616.394-1.51.394-2.686 0-1.144-.131-2.025-.394-2.641-.262-.616-.587-.925-.974-.925-.388 0-.713.309-.978.925-.264.616-.396 1.505-.396 2.664" fill-rule="evenodd" fill="navy"/><path d="M83.221 99.987h-1.485V88.309h1.377v1.66c.237-.785.45-1.298.64-1.542.188-.243.403-.365.643-.365.34 0 .667.194.982.582l-.46 2.692c-.252-.338-.485-.507-.7-.507-.209 0-.386.12-.53.358-.145.237-.26.667-.342 1.29-.083.622-.125 1.925-.125 3.909v3.601m2.261-3.285l1.495-.473c.064.597.192 1.05.386 1.36.195.308.466.463.815.463.385 0 .674-.146.869-.441.13-.205.195-.48.195-.825a1.41 1.41 0 00-.106-.584c-.074-.146-.24-.283-.498-.408-1.2-.55-1.962-1.052-2.283-1.508-.445-.632-.667-1.509-.667-2.633 0-1.014.192-1.865.576-2.556.385-.69.982-1.035 1.79-1.035.77 0 1.341.261 1.716.785.373.522.631 1.296.773 2.32l-1.398.54c-.06-.458-.175-.809-.344-1.053-.168-.243-.408-.365-.72-.365-.394 0-.676.114-.847.342-.113.161-.17.371-.17.627 0 .22.05.408.149.561.134.207.599.497 1.393.87.795.375 1.35.833 1.665 1.377.31.548.467 1.315.467 2.298 0 1.07-.216 1.99-.647 2.76-.431.77-1.068 1.155-1.913 1.155-.766 0-1.373-.32-1.82-.962-.446-.643-.738-1.514-.876-2.615m9.624 3.285V84.012h1.57v13.252h3.891v2.723h-5.461" fill="navy"/><path d="M103.161 86.734h-1.485v-2.857h1.485zm-1.485 0zm1.485 13.253h-1.485V88.31h1.485z" fill-rule="evenodd" fill="navy"/><path d="M104.573 88.31h1.365v1.593c.49-1.227 1.074-1.841 1.75-1.841.36 0 .672.154.937.461.264.308.48.773.65 1.395.247-.622.513-1.087.799-1.395.286-.307.591-.461.915-.461.413 0 .762.174 1.048.521.286.348.5.859.64 1.533.102.497.154 1.302.154 2.415v7.456h-1.485v-6.665c0-1.156-.051-1.903-.154-2.239-.137-.439-.35-.659-.635-.659-.209 0-.405.132-.589.395-.183.264-.316.65-.397 1.16-.081.508-.122 1.31-.122 2.408v5.6h-1.484v-6.39c0-1.134-.027-1.866-.08-2.195-.052-.33-.134-.575-.245-.736a.52.52 0 00-.452-.242c-.229 0-.435.128-.618.384s-.314.626-.394 1.109c-.079.484-.119 1.285-.119 2.405v5.665h-1.484V88.309" fill="navy"/><path d="M115.796 86.734h-1.484v-2.857h1.484zm-1.484 0zm1.484 13.253h-1.484V88.31h1.484z" fill-rule="evenodd" fill="navy"/><path d="M119.885 88.31v2.452h-1.019v4.73c0 .959.01 1.517.029 1.675a.89.89 0 00.133.392c.069.104.153.155.252.155.138 0 .337-.098.6-.297l.124 2.4a1.708 1.708 0 01-1.172.462 1.07 1.07 0 01-.722-.28 1.649 1.649 0 01-.473-.73c-.1-.298-.17-.7-.208-1.21-.032-.36-.048-1.088-.048-2.185v-5.112h-.682v-2.453h.682v-2.317l1.485-1.823v4.14h1.019" fill="navy"/><path d="M124.188 96.297l1.484.517c-.19 1.13-.491 1.99-.902 2.58-.41.59-.925.885-1.542.885-.977 0-1.7-.663-2.17-1.992-.37-1.064-.555-2.406-.555-4.029 0-1.936.243-3.454.73-4.551.486-1.096 1.1-1.645 1.845-1.645.835 0 1.494.574 1.977 1.721.484 1.149.714 2.908.693 5.276h-3.717c.01.917.13 1.63.358 2.14.23.508.514.763.855.763.231 0 .427-.131.585-.395.158-.263.278-.686.359-1.27zm.086-3.128c-.01-.896-.121-1.578-.332-2.045-.211-.466-.468-.7-.77-.7-.325 0-.592.247-.803.74-.211.492-.315 1.16-.311 2.005h2.216m7.855 6.818h-1.377v-1.714c-.23.666-.501 1.168-.814 1.504-.313.335-.63.502-.947.502-.648 0-1.203-.54-1.664-1.623-.462-1.083-.693-2.592-.693-4.529 0-1.981.225-3.488.674-4.519.45-1.03 1.016-1.546 1.703-1.546.629 0 1.174.542 1.633 1.626v-5.811h1.485zm-3.967-6.065c0 1.25.083 2.155.248 2.714.24.808.574 1.213 1.003 1.213.342 0 .633-.303.872-.91.24-.606.359-1.513.359-2.72 0-1.346-.116-2.315-.349-2.906-.232-.592-.53-.889-.892-.889-.352 0-.646.293-.884.878s-.357 1.457-.357 2.62" fill-rule="evenodd" fill="navy"/></svg>