<?xml version="1.0" standalone="no"?>
<!DOCTYPE svg PUBLIC "-//W3C//DTD SVG 20010904//EN"
 "http://www.w3.org/TR/2001/REC-SVG-20010904/DTD/svg10.dtd">
<svg version="1.0" xmlns="http://www.w3.org/2000/svg"
 width="597.000000pt" height="589.000000pt" viewBox="0 0 597.000000 589.000000"
 preserveAspectRatio="xMidYMid meet">

<g transform="translate(0.000000,589.000000) scale(0.100000,-0.100000)"
fill="#000000" stroke="none">
<path d="M2185 5864 c-95 -21 -238 -60 -307 -85 l-58 -21 -2 -156 -3 -156 -50
-29 c-27 -17 -75 -43 -105 -60 -30 -16 -64 -38 -76 -48 -32 -30 -61 -23 -158
39 -50 32 -106 64 -124 72 -30 12 -35 10 -73 -16 -48 -33 -277 -269 -291 -300
-12 -25 0 -50 78 -171 30 -45 54 -92 54 -105 0 -13 -15 -47 -33 -76 -17 -29
-50 -88 -73 -130 l-41 -77 -159 0 -158 0 -47 -145 c-53 -164 -86 -317 -71
-332 6 -6 66 -40 134 -77 l123 -67 3 -166 2 -166 -57 -30 c-32 -16 -85 -46
-117 -66 -33 -20 -68 -38 -78 -42 -23 -7 -23 -2 7 -142 29 -133 58 -233 85
-297 l19 -44 157 -3 157 -3 34 -65 c19 -36 52 -95 75 -132 47 -79 46 -89 -10
-176 -21 -32 -51 -83 -67 -114 l-29 -56 39 -48 c57 -71 256 -267 287 -283 26
-13 32 -11 149 63 67 42 129 76 138 74 9 -2 76 -39 149 -82 l133 -79 -7 -128
c-8 -157 -5 -171 43 -192 119 -49 303 -98 382 -100 53 -2 55 -1 82 38 15 22
47 79 71 127 l43 87 155 1 c157 0 187 12 66 25 -206 22 -501 129 -691 250
-174 111 -370 282 -466 405 -259 331 -400 703 -416 1100 -13 321 71 687 224
970 77 142 172 268 335 442 144 153 459 346 693 423 102 34 262 71 344 80 113
13 44 28 -107 24 l-137 -4 -50 96 c-99 189 -84 177 -200 153z"/>
<path d="M3303 5301 c-108 -79 -190 -238 -200 -393 -13 -190 50 -335 208 -477
41 -37 81 -85 97 -115 l27 -51 5 -780 5 -781 26 -49 c51 -101 186 -152 276
-106 22 11 53 35 68 53 63 74 60 30 65 878 l5 775 30 58 c20 42 53 81 111 134
46 41 97 97 114 124 99 154 107 386 19 560 -32 64 -138 184 -171 195 -41 13
-48 -16 -48 -207 0 -208 7 -194 -142 -277 -123 -67 -135 -70 -202 -39 -90 41
-195 114 -206 143 -6 14 -10 99 -10 189 0 90 -3 170 -6 179 -9 23 -26 20 -71
-13z m416 -2497 c45 -57 14 -124 -57 -124 -49 0 -76 27 -76 77 0 69 90 101
133 47z"/>
<path d="M2722 5060 c-188 -24 -277 -66 -399 -190 -60 -60 -107 -134 -259
-400 -87 -152 -141 -237 -169 -262 -185 -168 -208 -199 -239 -321 -36 -138
-28 -583 12 -698 45 -127 137 -220 270 -272 58 -23 220 -39 317 -31 l80 6 55
76 c78 107 219 247 266 263 29 10 111 14 329 14 l290 0 0 -45 0 -45 -280 -1
c-312 -1 -317 -1 -378 -71 -72 -82 -98 -112 -130 -155 l-28 -36 88 -7 c101 -9
730 -1 754 10 24 9 32 269 28 867 -3 374 -7 480 -17 490 -10 10 -132 13 -603
13 -324 0 -589 3 -589 8 0 9 45 96 88 172 16 28 35 61 43 75 8 14 16 27 19 30
3 3 17 23 31 45 138 213 186 261 298 300 60 21 89 25 195 25 137 0 182 6 190
25 2 7 7 33 11 57 6 38 4 46 -12 52 -30 12 -183 15 -261 6z m-497 -1020 c44
-28 112 -67 152 -86 96 -47 178 -54 553 -47 163 3 309 3 324 -1 25 -6 27 -10
24 -49 l-3 -42 -370 -3 c-360 -3 -444 2 -520 30 -16 6 -94 47 -172 90 -111 62
-144 86 -153 109 -10 23 -10 32 1 45 21 25 74 10 164 -46z m-180 -168 c118
-56 277 -189 316 -265 45 -86 3 -130 -125 -135 -180 -8 -419 87 -470 187 -43
84 -23 179 47 225 58 38 134 34 232 -12z"/>
<path d="M1487 4509 c-41 -10 -94 -35 -113 -53 -6 -7 -19 -27 -28 -45 -34 -64
9 -136 104 -179 98 -44 271 -30 333 27 109 99 55 219 -112 251 -63 12 -131 12
-184 -1z"/>
<path d="M1714 2903 c-13 -52 3 -249 25 -297 30 -68 55 -76 252 -76 181 0 201
6 235 68 14 26 19 56 19 111 l0 76 -125 6 c-152 7 -211 23 -318 88 l-82 50 -6
-26z"/>
<path d="M83 1417 c-29 -5 -43 -15 -51 -32 -15 -33 -8 -49 33 -68 22 -11 37
-26 41 -44 10 -38 -4 -481 -16 -525 -7 -24 -18 -39 -33 -44 -31 -9 -57 -34
-57 -55 0 -10 12 -27 26 -38 26 -20 39 -21 302 -21 295 0 318 3 412 53 258
137 267 584 15 732 -78 45 -160 56 -409 53 -122 -2 -240 -7 -263 -11z m465
-148 c106 -84 122 -430 24 -521 -52 -49 -133 -62 -170 -28 -22 20 -22 26 -22
288 0 201 3 271 13 281 21 22 119 9 155 -20z"/>
<path d="M2033 1416 c-87 -19 -119 -67 -67 -103 71 -49 67 -28 62 -307 -3
-147 -10 -262 -16 -278 -6 -14 -25 -34 -41 -44 -39 -23 -41 -57 -4 -81 20 -13
48 -18 112 -18 106 0 136 8 158 41 17 26 16 27 -9 49 -15 13 -33 25 -40 27
-18 6 -19 251 0 270 17 17 42 -11 71 -80 47 -112 119 -258 134 -271 23 -19 36
-6 69 68 119 264 120 266 150 266 23 0 23 -1 23 -118 l0 -118 -32 -28 c-18
-16 -33 -35 -33 -43 0 -46 97 -73 244 -66 158 7 207 49 136 115 -27 25 -31 38
-41 118 -14 116 -7 411 10 445 8 14 25 37 39 53 66 70 -39 132 -192 113 -83
-11 -106 -35 -191 -206 -41 -81 -80 -150 -88 -153 -22 -8 -37 7 -76 77 -21 36
-41 63 -46 59 -4 -5 -5 -3 -1 4 6 11 -25 77 -80 170 -30 51 -129 66 -251 39z"/>
<path d="M4585 1413 c-63 -9 -190 -44 -218 -61 -55 -32 -57 -49 -12 -89 l40
-34 0 -207 c0 -252 -6 -295 -47 -332 -67 -62 0 -105 162 -105 110 0 174 14
184 42 4 9 -3 32 -16 52 -18 31 -22 54 -25 161 -5 150 3 173 59 178 21 2 46
-2 57 -7 47 -26 56 -259 12 -332 -42 -70 1 -94 164 -94 160 1 214 37 151 100
-22 22 -24 33 -30 172 -10 226 -11 231 -61 279 -81 78 -199 74 -273 -10 -23
-26 -39 -36 -55 -34 -22 3 -22 4 -19 157 4 155 0 174 -33 169 -5 0 -23 -3 -40
-5z"/>
<path d="M1185 1175 c-91 -20 -157 -49 -180 -80 l-20 -27 40 -34 40 -33 -3
-128 -2 -128 -36 -36 c-45 -46 -43 -75 6 -103 31 -18 52 -21 170 -21 182 0
220 13 220 75 0 23 -7 31 -44 48 -50 24 -56 41 -56 156 0 84 7 116 26 116 7 0
34 -14 59 -32 52 -37 103 -41 143 -11 72 54 89 124 45 191 -52 79 -136 80
-207 1 -30 -34 -39 -39 -51 -29 -8 7 -15 24 -15 39 0 53 -27 60 -135 36z"/>
<path d="M3230 1168 c-62 -24 -145 -100 -175 -163 -15 -30 -20 -61 -20 -125 0
-76 3 -91 30 -139 38 -68 103 -125 167 -147 75 -25 196 -15 267 20 99 51 133
107 93 156 l-18 22 -34 -20 c-19 -12 -56 -26 -83 -33 -40 -10 -54 -9 -92 6
-50 19 -88 63 -83 98 3 22 6 22 165 25 l163 2 16 32 c46 90 -55 242 -186 278
-58 16 -150 11 -210 -12z m169 -104 c23 -30 27 -64 9 -82 -7 -7 -36 -12 -65
-12 -61 0 -76 15 -62 64 17 60 81 76 118 30z"/>
<path d="M3903 1172 c-98 -35 -175 -112 -207 -205 -20 -60 -20 -99 0 -168 40
-134 158 -219 303 -219 93 0 165 25 218 75 35 34 43 48 43 77 0 56 -19 65 -98
45 -102 -26 -168 -2 -208 74 -38 74 -21 169 33 190 42 16 69 -3 99 -66 34 -76
93 -98 148 -54 91 71 58 184 -71 241 -67 30 -190 35 -260 10z"/>
<path d="M5616 932 c-49 -9 -56 -26 -19 -46 16 -8 46 -36 66 -62 34 -43 37
-53 37 -109 0 -54 -3 -65 -22 -77 -20 -13 -21 -17 -9 -32 18 -22 148 -23 177
-1 19 15 19 16 -3 31 -19 14 -23 26 -23 73 0 38 6 66 19 86 31 49 66 84 94 94
15 6 27 18 27 26 0 13 -12 15 -67 13 l-68 -3 0 -34 c0 -44 -29 -65 -50 -37 -8
11 -12 30 -8 47 5 25 3 29 -18 29 -13 0 -40 2 -59 4 -19 2 -53 1 -74 -2z"/>
<path d="M5155 919 c-4 -6 2 -19 14 -30 28 -27 34 -54 30 -153 -3 -71 -7 -88
-24 -99 -31 -24 -4 -47 55 -47 53 0 88 24 58 41 -18 10 -32 70 -23 99 11 34
33 23 121 -57 47 -43 93 -78 102 -78 15 0 18 17 23 139 4 114 8 141 22 151 9
7 17 20 17 29 0 13 -11 16 -65 16 -67 0 -83 -13 -50 -40 18 -15 21 -100 4
-100 -6 0 -46 32 -88 70 -77 69 -79 70 -134 70 -31 0 -59 -5 -62 -11z"/>
<path d="M1693 853 c-11 -2 -37 -19 -56 -38 -106 -103 6 -279 145 -226 37 14
77 61 84 98 19 100 -72 187 -173 166z"/>
<path d="M1363 298 c-14 -7 -23 -20 -23 -35 0 -26 15 -31 27 -9 12 20 69 25
64 6 -26 -101 -56 -191 -73 -217 -24 -41 -8 -43 24 -4 21 24 42 79 77 201 5
17 16 26 34 28 34 4 54 27 24 27 -12 1 -47 4 -77 7 -32 4 -64 2 -77 -4z"/>
<path d="M3468 294 c-31 -17 -58 -61 -58 -97 0 -13 11 -41 25 -61 29 -43 39
-76 26 -94 -14 -23 -46 -10 -49 21 -4 36 -27 30 -27 -8 0 -57 73 -59 104 -3
15 25 14 30 -12 77 -26 50 -33 92 -21 126 8 20 48 37 69 29 21 -9 19 -58 -5
-79 -20 -18 -18 -35 4 -35 19 0 48 64 40 87 -8 20 -44 53 -59 52 -5 0 -22 -6
-37 -15z"/>
<path d="M2389 267 c-17 -19 -51 -72 -76 -118 -25 -46 -54 -93 -64 -105 -25
-27 -24 -36 4 -23 14 6 42 46 70 97 61 114 96 170 97 154 0 -7 -9 -45 -20 -84
-32 -117 -23 -211 16 -162 8 11 34 59 59 107 43 86 85 149 85 130 0 -5 -11
-47 -25 -94 -13 -46 -25 -96 -25 -110 0 -33 22 -53 50 -44 20 6 29 27 9 22 -6
-1 -16 5 -21 14 -8 12 -4 40 17 110 31 106 35 130 19 136 -23 8 -65 -42 -114
-138 -28 -55 -53 -99 -56 -97 -6 7 15 123 31 168 8 23 15 49 15 56 0 26 -40
14 -71 -19z"/>
<path d="M4141 291 c-19 -12 -6 -43 16 -39 10 2 18 12 18 22 0 22 -14 29 -34
17z"/>
<path d="M2088 225 c-6 -14 -17 -25 -25 -25 -15 0 -18 -16 -4 -24 5 -3 3 -23
-5 -43 -32 -91 -6 -150 49 -109 24 19 21 24 -10 18 -26 -5 -26 -4 -20 40 9 67
26 98 54 98 12 0 23 5 23 10 0 6 -9 10 -20 10 -17 0 -19 3 -10 19 14 26 13 31
-5 31 -9 0 -21 -11 -27 -25z"/>
<path d="M3040 225 c-5 -14 -16 -25 -25 -25 -16 0 -21 -16 -6 -22 6 -2 3 -27
-6 -59 -18 -66 -12 -109 16 -109 20 0 74 39 54 40 -6 0 -14 -4 -18 -10 -10
-16 -35 1 -35 24 0 12 7 43 16 69 13 38 20 47 39 47 13 0 27 5 30 10 3 6 -4
10 -15 10 -19 0 -21 4 -16 25 5 19 2 25 -9 25 -9 0 -20 -11 -25 -25z"/>
<path d="M1535 200 c-4 -6 -3 -15 0 -20 4 -6 -3 -43 -15 -82 -15 -49 -18 -74
-11 -81 14 -14 51 74 56 135 3 34 1 48 -10 52 -8 3 -17 1 -20 -4z"/>
<path d="M1813 198 c-6 -7 -20 -31 -31 -53 -27 -53 -78 -112 -88 -102 -5 4 2
36 14 70 27 77 27 87 1 87 -12 0 -19 -5 -16 -12 2 -7 -7 -43 -21 -81 -20 -54
-22 -70 -12 -82 20 -24 36 -18 74 28 l36 42 -3 -40 c-2 -36 0 -40 22 -40 13 0
26 6 29 13 2 6 -3 12 -12 12 -22 0 -20 20 9 92 23 57 22 96 -2 66z"/>
<path d="M1930 200 c-40 -10 -49 -52 -22 -103 28 -54 28 -67 -3 -67 -16 0 -25
6 -25 15 0 17 -16 20 -25 6 -7 -13 22 -41 43 -41 27 0 62 29 62 50 0 11 -9 34
-20 52 -25 42 -25 64 0 78 18 10 21 7 26 -20 7 -33 27 -36 32 -4 4 25 -33 43
-68 34z"/>
<path d="M2704 195 c-96 -40 -111 -185 -20 -185 19 0 40 8 49 18 25 28 21 33
-11 15 -33 -19 -62 -12 -62 16 0 12 9 21 27 26 46 11 83 44 83 73 0 38 -28 53
-66 37z m33 -21 c8 -21 -14 -60 -42 -72 -32 -15 -37 -5 -19 36 21 50 49 67 61
36z"/>
<path d="M2885 200 c-65 -25 -107 -129 -70 -170 22 -24 77 -27 95 -5 18 22 8
26 -28 13 -35 -13 -37 -13 -46 19 -6 18 -3 23 9 23 32 0 87 33 96 57 16 43
-16 78 -56 63z m33 -31 c4 -22 -36 -69 -59 -69 -23 0 -24 18 -2 50 29 42 55
50 61 19z"/>
<path d="M3155 188 c-30 -24 -31 -37 -5 -88 11 -22 20 -46 20 -55 0 -20 -36
-19 -44 2 -5 12 -10 13 -18 5 -8 -8 -8 -15 2 -27 27 -32 90 -7 90 36 0 13 -10
43 -22 67 -20 37 -21 44 -8 52 25 16 39 11 46 -15 7 -29 19 -32 28 -9 15 40
-50 63 -89 32z"/>
<path d="M3644 200 c-59 -23 -100 -119 -70 -165 20 -30 75 -35 101 -9 22 22
11 30 -19 14 -30 -16 -56 -7 -56 18 0 13 12 22 38 30 47 14 75 43 70 73 -4 29
-37 49 -64 39z m36 -25 c0 -29 -24 -66 -47 -71 -13 -4 -26 -4 -29 -1 -7 6 25
69 40 79 18 12 36 9 36 -7z"/>
<path d="M3774 203 c-6 -2 -9 -14 -7 -26 3 -13 -5 -51 -16 -85 -25 -73 -26
-82 -6 -82 8 0 15 6 15 14 0 7 11 34 25 60 13 25 21 46 17 46 -5 0 -6 15 -4
34 4 34 -4 47 -24 39z"/>
<path d="M3929 208 c-1 -2 -3 -16 -5 -32 -2 -16 -10 -46 -19 -68 -19 -49 -19
-87 0 -94 67 -26 179 112 145 177 -17 31 -35 17 -32 -23 4 -46 -20 -102 -53
-124 -45 -29 -52 -6 -22 74 19 52 23 72 14 81 -10 10 -25 15 -28 9z"/>
<path d="M4115 200 c-3 -5 -4 -14 0 -19 3 -5 -4 -33 -15 -61 -11 -28 -20 -62
-20 -76 0 -31 26 -42 48 -20 15 15 15 16 -1 16 -22 0 -22 7 7 84 18 47 21 67
13 75 -14 14 -24 14 -32 1z"/>
<path d="M4252 190 c-57 -35 -83 -124 -49 -167 14 -19 71 -16 90 5 25 28 20
33 -12 14 -24 -14 -31 -14 -45 -3 -21 17 -20 46 3 97 17 37 51 61 65 46 10 -9
7 -42 -4 -42 -5 0 -10 -7 -10 -15 0 -22 27 -19 40 4 14 27 13 47 -6 65 -20 21
-32 20 -72 -4z"/>
<path d="M4410 173 c-69 -70 -61 -163 15 -163 18 0 41 7 49 16 25 25 18 34
-12 17 -33 -19 -62 -12 -62 15 0 13 9 21 28 25 69 14 111 91 63 117 -31 16
-41 13 -81 -27z m70 -10 c0 -20 -38 -63 -57 -63 -17 0 -16 14 2 50 17 33 55
42 55 13z"/>
<path d="M1603 178 c-31 -35 -40 -56 -14 -33 13 11 32 19 42 17 14 -2 19 3 19
17 0 27 -21 27 -47 -1z"/>
<path d="M3832 177 c-27 -29 -29 -47 -3 -23 11 10 25 15 31 11 13 -8 32 14 24
27 -9 14 -30 8 -52 -15z"/>
<path d="M20 53 l0 -43 585 0 585 0 0 40 c0 35 -3 40 -22 40 -13 0 -276 1
-586 2 l-562 3 0 -42z"/>
<path d="M4694 91 c-2 -2 -4 -22 -4 -43 l0 -38 585 0 c578 0 585 0 586 20 2
26 2 48 0 58 -1 7 -1159 10 -1167 3z"/>
</g>
</svg>
