<?xml version="1.0" encoding="UTF-8"?>
<svg version="1.1" xmlns="http://www.w3.org/2000/svg" width="440" height="306">
<path d="M0 0 C145.2 0 290.4 0 440 0 C440 100.98 440 201.96 440 306 C294.8 306 149.6 306 0 306 C0 205.02 0 104.04 0 0 Z " fill="#FEFEFE" transform="translate(0,0)"/>
<path d="M0 0 C1.17650116 -0.00511093 2.35300232 -0.01022186 3.56515503 -0.01548767 C7.44469322 -0.02935942 11.32405327 -0.02842864 15.20361328 -0.02612305 C17.22358853 -0.02843413 19.24355942 -0.03193805 21.26353276 -0.03552979 C27.61125345 -0.04660393 33.95891496 -0.04707438 40.30664062 -0.04101562 C46.83627973 -0.03497867 53.36570319 -0.04728445 59.89530551 -0.06858569 C65.51848461 -0.08624959 71.14159536 -0.09219549 76.76480114 -0.08894795 C80.11576399 -0.08714235 83.46645069 -0.09102796 86.81740952 -0.10366249 C90.55812817 -0.11603571 94.29835143 -0.10922915 98.0390625 -0.09765625 C99.1364978 -0.10529999 100.23393311 -0.11294373 101.36462402 -0.12081909 C110.63758533 -0.05759539 117.6656055 1.82873833 125.33642578 7.1496582 C126.29935547 7.80708008 127.26228516 8.46450195 128.25439453 9.1418457 C133.55118242 13.04474204 137.84860256 16.84844849 141.77392578 22.1496582 C142.64355706 23.30961024 143.51471428 24.46841947 144.38720703 25.6262207 C145.06323975 26.5258252 145.06323975 26.5258252 145.75292969 27.44360352 C148.09680681 30.51794392 150.53213984 33.51769077 152.96142578 36.5246582 C157.83975119 42.58284303 162.57999996 48.73645339 167.28613281 54.92895508 C171.38600395 60.3104192 175.55995388 65.62618448 179.84033203 70.86547852 C182.25584264 73.83534242 184.55843147 76.81867269 186.69970703 79.9934082 C191.72309084 87.48129764 191.72309084 87.48129764 199.77392578 91.0871582 C200.77166016 91.2418457 201.76939453 91.3965332 202.79736328 91.5559082 C212.67067832 93.67326248 222.51794521 99.81187713 230.14892578 106.2746582 C231.11830078 106.9759082 232.08767578 107.6771582 233.08642578 108.3996582 C244.62209764 118.13386898 252.03529982 133.73102273 255.14892578 148.2746582 C255.26112325 149.81935318 255.32700987 151.3677989 255.35766602 152.91625977 C255.38660194 154.28853729 255.38660194 154.28853729 255.41612244 155.6885376 C255.47420134 159.86482401 255.52313044 164.04094619 255.55395508 168.2175293 C255.57553347 170.4152803 255.60963416 172.6129454 255.65649414 174.81030273 C255.72365576 177.99151692 255.75097974 181.17095909 255.77001953 184.3527832 C255.79785019 185.32701233 255.82568085 186.30124146 255.85435486 187.30499268 C255.83351577 194.27107357 254.0656641 198.31966135 249.14892578 203.2746582 C243.1314111 208.05260993 237.69379966 207.76617493 230.21142578 207.5246582 C229.14601563 207.50661133 228.08060547 207.48856445 226.98291016 207.4699707 C224.37063649 207.42311378 221.76026352 207.35752746 219.14892578 207.2746582 C219.18244141 208.17700195 219.21595703 209.0793457 219.25048828 210.0090332 C219.10246342 214.76860188 217.31053884 218.09958003 215.14892578 222.2746582 C214.72482422 223.09450195 214.30072266 223.9143457 213.86376953 224.7590332 C207.15107482 236.80074739 196.36726124 246.51380492 183.05126953 250.57543945 C170.02520038 252.90943983 154.63241153 253.59360822 143.14892578 246.2746582 C142.18986328 245.67008789 141.23080078 245.06551758 140.24267578 244.44262695 C126.90997822 235.3570387 120.04439379 223.85653024 116.14892578 208.2746582 C92.38892578 207.9446582 68.62892578 207.6146582 44.14892578 207.2746582 C43.81892578 209.2546582 43.48892578 211.2346582 43.14892578 213.2746582 C39.63399761 226.52017848 31.29735803 237.29539276 19.85986328 244.77075195 C17.64613859 246.05258223 15.47860822 247.21639154 13.14892578 248.2746582 C11.98361328 248.80704102 10.81830078 249.33942383 9.61767578 249.88793945 C4.23262142 251.86260561 -1.11550068 251.71312329 -6.78857422 251.6496582 C-7.82175781 251.66125977 -8.85494141 251.67286133 -9.91943359 251.68481445 C-23.06607198 251.63485889 -34.67204279 246.55179921 -44.22607422 237.3996582 C-52.65408227 228.30720139 -57.53581185 218.58082592 -58.85107422 206.2746582 C-59.54144775 206.29560547 -60.23182129 206.31655273 -60.94311523 206.33813477 C-64.09978415 206.42176916 -67.25621924 206.47346773 -70.41357422 206.5246582 C-71.49960938 206.55817383 -72.58564453 206.59168945 -73.70458984 206.6262207 C-80.34067722 206.70690262 -84.63357499 206.54535256 -89.85107422 202.2746582 C-95.55312322 196.47882153 -95.49111205 189.66595377 -95.49450684 182.01173401 C-95.47891714 180.40275112 -95.46233182 178.79377762 -95.44482422 177.18481445 C-95.44311046 175.51387112 -95.44318149 173.84292509 -95.44494629 172.17198181 C-95.44329792 168.67933225 -95.42469184 165.18732829 -95.39306641 161.69482422 C-95.35342118 157.23859931 -95.34902075 152.78321964 -95.35652924 148.32685184 C-95.35961278 144.87878301 -95.34742895 141.43090088 -95.33039856 137.98287773 C-95.32341265 136.340796 -95.32023862 134.69869312 -95.3210907 133.05659676 C-95.31084461 120.06321668 -94.2113221 110.10202018 -84.85107422 100.2746582 C-82.61895812 98.3662554 -80.3478609 96.59472678 -77.96435547 94.88012695 C-73.87243858 91.77148029 -71.45483211 89.06147306 -69.70263672 84.1965332 C-69.15869263 82.71358765 -69.15869263 82.71358765 -68.60375977 81.20068359 C-68.23162354 80.15259521 -67.8594873 79.10450684 -67.47607422 78.0246582 C-67.08395752 76.95014404 -66.69184082 75.87562988 -66.2878418 74.76855469 C-65.49976686 72.60857978 -64.71592815 70.44705413 -63.93652344 68.28393555 C-62.49657401 64.29184904 -61.02557877 60.31192332 -59.53857422 56.3371582 C-59.29913086 55.69536621 -59.0596875 55.05357422 -58.81298828 54.39233398 C-57.27482217 50.3039362 -55.60786329 46.30417804 -53.77294922 42.34106445 C-52.74531787 40.03760265 -51.86603952 37.69702521 -50.97607422 35.3371582 C-45.14092907 20.62343927 -36.01325933 10.54637743 -21.91357422 3.5715332 C-14.41932515 0.39794814 -8.08656449 -0.01818801 0 0 Z " fill="#77AC82" transform="translate(134.85107421875,31.725341796875)"/>
<path d="M0 0 C7.96125 -0.061875 15.9225 -0.12375 24.125 -0.1875 C27.88028076 -0.22846802 27.88028076 -0.22846802 31.71142578 -0.27026367 C33.70604979 -0.27902934 35.70067917 -0.28667309 37.6953125 -0.29296875 C39.23626587 -0.3159906 39.23626587 -0.3159906 40.80834961 -0.33947754 C47.43073064 -0.3418927 51.9921455 0.30021254 57.09765625 4.8828125 C61.96105089 10.43269028 66.55100793 16.16116492 71.0625 22 C71.64717041 22.7542627 72.23184082 23.50852539 72.83422852 24.28564453 C73.37490967 24.99575684 73.91559082 25.70586914 74.47265625 26.4375 C74.96000244 27.07558594 75.44734863 27.71367188 75.94946289 28.37109375 C77 30 77 30 77 32 C77.66 32 78.32 32 79 32 C80.44526736 33.73548169 81.8087222 35.53975963 83.125 37.375 C84.21167969 38.87160156 84.21167969 38.87160156 85.3203125 40.3984375 C87 43 87 43 87 45 C87.66 45 88.32 45 89 45 C90.98 47.97 92.96 50.94 95 54 C63.65 54 32.3 54 0 54 C0 36.18 0 18.36 0 0 Z " fill="#FCFDFD" transform="translate(189,68)"/>
<path d="M0 0 C0.96703857 0.00302124 0.96703857 0.00302124 1.95361328 0.00610352 C4.34935679 0.01652469 6.74499845 0.04444724 9.140625 0.0703125 C17.184375 0.1321875 17.184375 0.1321875 25.390625 0.1953125 C25.390625 18.3453125 25.390625 36.4953125 25.390625 55.1953125 C4.930625 55.1953125 -15.529375 55.1953125 -36.609375 55.1953125 C-36.609375 54.2053125 -36.609375 53.2153125 -36.609375 52.1953125 C-35.949375 52.1953125 -35.289375 52.1953125 -34.609375 52.1953125 C-34.403125 51.0403125 -34.196875 49.8853125 -33.984375 48.6953125 C-32.34240058 41.27124242 -29.37608185 34.25671979 -26.609375 27.1953125 C-26.04476562 25.74125 -26.04476562 25.74125 -25.46875 24.2578125 C-24.83368008 22.64493651 -24.18733625 21.03643268 -23.52734375 19.43359375 C-22.89848045 17.90023769 -22.29817844 16.35494471 -21.72265625 14.80078125 C-19.19597106 8.37212653 -15.7109429 4.85888294 -9.97363281 1.13305664 C-6.6676641 -0.17820171 -3.49999306 -0.05174611 0 0 Z " fill="#FAFCFB" transform="translate(137.609375,66.8046875)"/>
<path d="M0 0 C7.65229684 4.47435647 14.43744229 10.19758984 17.23046875 18.8359375 C17.36757093 21.48200959 17.42109847 24.01062763 17.35546875 26.6484375 C17.34644531 27.34130859 17.33742188 28.03417969 17.328125 28.74804688 C17.30473032 30.44416145 17.26886516 32.14009621 17.23046875 33.8359375 C16.57046875 33.8359375 15.91046875 33.8359375 15.23046875 33.8359375 C15.18921875 34.6609375 15.14796875 35.4859375 15.10546875 36.3359375 C13.6046906 42.33905008 10.65058334 46.17078577 5.55078125 49.6796875 C-2.57383985 54.15350483 -9.90793042 55.45588912 -18.89453125 52.8984375 C-25.80878423 49.85388989 -31.25939489 43.76850994 -34.33203125 36.9609375 C-36.68321191 29.97240513 -36.94773625 23.05359036 -34.20703125 16.1484375 C-27.92410485 3.84712897 -14.13816907 -5.94241803 0 0 Z " fill="#FCFDFC" transform="translate(311.76953125,203.1640625)"/>
<path d="M0 0 C7.62168553 4.34366577 13.4936281 10.38205216 16.0078125 18.90234375 C17.0313107 27.93692661 15.76694622 34.85237061 10.32421875 42.1640625 C7.50978938 45.5353252 5.16310132 48.26166423 1.0078125 49.90234375 C0.0178125 49.90234375 -0.9721875 49.90234375 -1.9921875 49.90234375 C-1.9921875 50.56234375 -1.9921875 51.22234375 -1.9921875 51.90234375 C-19.95849569 52.82107542 -19.95849569 52.82107542 -25.35546875 48.515625 C-25.89558594 47.98324219 -26.43570313 47.45085937 -26.9921875 46.90234375 C-27.94158203 45.99548828 -27.94158203 45.99548828 -28.91015625 45.0703125 C-34.58395739 39.13914306 -37.06462549 33.6559226 -37.4296875 25.46484375 C-37.14683633 16.57347869 -33.18946841 10.06603506 -26.9921875 3.90234375 C-19.79807609 -2.41975416 -8.82203311 -3.23628107 0 0 Z " fill="#FCFDFD" transform="translate(137.9921875,204.09765625)"/>
<path d="M0 0 C0.69480469 -0.02384766 1.38960938 -0.04769531 2.10546875 -0.07226562 C6.421428 -0.06007365 9.84592195 0.69470887 13.03955078 3.73706055 C15.45987598 7.80740951 14.80549241 12.6728252 14.625 17.25 C14.6146875 18.30767578 14.604375 19.36535156 14.59375 20.45507812 C14.43429958 28.25320042 14.43429958 28.25320042 12.125 30.5625 C9.80249023 30.80541992 9.80249023 30.80541992 6.93359375 30.79296875 C5.90685547 30.79103516 4.88011719 30.78910156 3.82226562 30.78710938 C2.74654297 30.77486328 1.67082031 30.76261719 0.5625 30.75 C-0.51708984 30.74935547 -1.59667969 30.74871094 -2.70898438 30.74804688 C-10.73485402 30.70264598 -10.73485402 30.70264598 -11.875 29.5625 C-12.1842041 25.46607878 -12.15344815 21.35665256 -12.1875 17.25 C-12.21650391 16.09564453 -12.24550781 14.94128906 -12.27539062 13.75195312 C-12.28376953 12.64142578 -12.29214844 11.53089844 -12.30078125 10.38671875 C-12.31536377 9.36666748 -12.32994629 8.34661621 -12.3449707 7.2956543 C-11.16112778 0.41091582 -6.04698932 -0.09431084 0 0 Z " fill="#609D67" transform="translate(381.875,66.4375)"/>
<path d="M0 0 C3.37013879 0.67402776 4.51677007 1.7087875 6.5 4.5 C7.10975382 8.15852292 6.94543026 9.80512879 4.9375 12.9375 C2.5 14.5 2.5 14.5 -1.125 14.5 C-4.5 13.5 -4.5 13.5 -5.9375 11.75 C-6.60110716 9.09557135 -6.90843801 7.2229201 -6.5 4.5 C-4.50600369 1.76748653 -3.3376027 0.66752054 0 0 Z " fill="#F4F8F5" transform="translate(382.5,74.5)"/>
<path d="M0 0 C0.8146875 0.00257812 1.629375 0.00515625 2.46875 0.0078125 C3.2834375 0.00523438 4.098125 0.00265625 4.9375 0 C6.96875 0.1328125 6.96875 0.1328125 7.96875 1.1328125 C8.11132189 4.46899481 8.01103157 7.79256856 7.96875 11.1328125 C4.33875 11.1328125 0.70875 11.1328125 -3.03125 11.1328125 C-3.12890625 3.41796875 -3.12890625 3.41796875 -3.03125 1.1328125 C-2.03125 0.1328125 -2.03125 0.1328125 0 0 Z " fill="#69A26F" transform="translate(380.03125,53.8671875)"/>
<path d="M0 0 C2 0 2 0 3.625 1.375 C5 3 5 3 5 5 C4.01 5 3.02 5 2 5 C1.67 5.99 1.34 6.98 1 8 C0.67 7.01 0.34 6.02 0 5 C-0.66 5 -1.32 5 -2 5 C-1.34 3.35 -0.68 1.7 0 0 Z " fill="#73A979" transform="translate(401,62)"/>
<path d="M0 0 C0.66 0 1.32 0 2 0 C2.66 1.32 3.32 2.64 4 4 C3.01 5.485 3.01 5.485 2 7 C1.34 7 0.68 7 0 7 C0 6.34 0 5.68 0 5 C-0.99 5 -1.98 5 -3 5 C-2.67 4.01 -2.34 3.02 -2 2 C-1.34 2 -0.68 2 0 2 C0 1.34 0 0.68 0 0 Z " fill="#76AA7B" transform="translate(396,54)"/>
<path d="M0 0 C2 1.375 2 1.375 4 3 C4 3.66 4 4.32 4 5 C3.34 5 2.68 5 2 5 C2 5.66 2 6.32 2 7 C-0.475 6.01 -0.475 6.01 -3 5 C-3 3 -3 3 -1.5 1.375 C-1.005 0.92125 -0.51 0.4675 0 0 Z " fill="#69A370" transform="translate(407,70)"/>
<path d="M0 0 C0.66 0 1.32 0 2 0 C3.625 2 3.625 2 5 4 C3.68 4.99 2.36 5.98 1 7 C0.01 5.68 -0.98 4.36 -2 3 C-1.34 2.01 -0.68 1.02 0 0 Z " fill="#68A26F" transform="translate(406,54)"/>
</svg>
