<?xml version="1.0" standalone="no"?>
<!DOCTYPE svg PUBLIC "-//W3C//DTD SVG 20010904//EN"
 "http://www.w3.org/TR/2001/REC-SVG-20010904/DTD/svg10.dtd">
<svg version="1.0" xmlns="http://www.w3.org/2000/svg"
 width="1280.000000pt" height="1417.000000pt" viewBox="0 0 1280.000000 1417.000000"
 preserveAspectRatio="xMidYMid meet">

<g transform="translate(0.000000,1417.000000) scale(0.100000,-0.100000)"
fill="#000000" stroke="none">
<path d="M5899 10348 c-18 -51 -38 -102 -45 -113 -7 -11 -22 -54 -33 -97 -26
-98 -58 -183 -74 -196 -7 -6 -124 -47 -262 -92 -137 -46 -255 -84 -261 -87 -5
-2 -107 62 -225 143 -117 81 -219 147 -225 147 -20 0 -504 -357 -504 -371 0
-8 32 -122 71 -254 66 -222 70 -243 58 -269 -31 -63 -305 -428 -329 -437 -14
-6 -135 -13 -269 -16 -134 -3 -248 -9 -253 -14 -11 -11 -188 -560 -188 -583 0
-9 87 -82 203 -169 111 -85 205 -158 209 -164 4 -6 8 -135 8 -287 0 -205 -3
-279 -12 -291 -7 -8 -99 -81 -205 -162 -106 -81 -195 -151 -198 -156 -3 -5 31
-120 75 -255 l82 -245 223 215 222 215 364 0 364 0 144 144 143 144 -21 90
c-120 510 70 1045 485 1364 32 25 99 68 149 97 296 170 635 219 965 140 l83
-20 31 28 c17 15 84 79 149 143 l117 115 0 362 0 362 31 36 c18 20 30 37 28
39 -2 2 -61 23 -130 45 l-126 41 -89 248 -89 247 -316 3 -316 2 -34 -92z"/>
<path d="M7443 9978 l-293 -293 0 -360 0 -360 -1162 -1163 c-640 -640 -1172
-1173 -1182 -1183 -19 -18 -40 -19 -376 -19 l-356 0 -284 -284 c-156 -157
-287 -291 -291 -298 -10 -15 -10 -153 -1 -183 4 -11 12 -21 19 -22 29 -6 524
-3 534 2 6 4 8 13 5 21 -3 8 -1 14 4 14 13 0 13 -12 0 -44 -8 -21 4 -14 63 35
86 73 123 93 201 109 102 21 212 -8 300 -79 21 -17 43 -31 48 -31 5 0 7 -4 4
-9 -4 -5 4 -7 16 -4 22 5 22 5 4 -9 -18 -14 -18 -15 5 -12 13 1 158 3 322 3
276 1 297 2 298 19 0 15 1 14 8 -3 11 -27 21 38 21 136 l0 75 298 294 c163
162 695 691 1182 1177 l886 883 364 0 365 0 293 293 292 292 0 376 c0 393 -1
399 -44 399 -13 0 -132 -112 -341 -319 -293 -292 -326 -323 -390 -352 -165
-78 -341 -16 -421 147 -24 49 -29 71 -29 134 0 136 8 147 387 527 325 326 331
333 316 355 l-15 23 -379 3 -379 2 -292 -292z m-2159 -4143 c-5 -12 -51 -15
-289 -17 -221 -2 -281 0 -278 9 4 10 75 13 287 16 154 1 282 3 283 5 1 1 0 -5
-3 -13z m-1259 -5 c12 -5 -87 -9 -242 -9 -169 -1 -263 3 -263 9 0 12 476 12
505 0z m75 6 c0 -3 -4 -8 -10 -11 -5 -3 -10 -1 -10 4 0 6 5 11 10 11 6 0 10
-2 10 -4z"/>
<path d="M8760 8395 l-216 -215 -364 0 -364 0 -143 -143 -144 -143 26 -129
c21 -103 26 -158 27 -270 0 -77 -3 -152 -7 -167 l-7 -28 581 0 581 0 0 238 c0
176 3 242 13 254 6 8 41 37 77 63 188 141 330 258 330 273 -1 27 -156 476
-166 479 -5 2 -106 -94 -224 -212z"/>
<path d="M7525 7079 c-174 -30 -360 -144 -457 -281 -84 -118 -94 -146 -164
-458 -26 -118 -51 -219 -56 -225 -5 -5 -78 -12 -162 -15 -125 -4 -157 -8 -180
-24 -26 -16 -28 -22 -23 -63 9 -87 97 -144 226 -149 40 -1 78 -7 84 -13 6 -6
48 -11 96 -11 105 0 98 -17 -9 -23 -73 -3 -73 -4 11 -3 60 1 85 -2 82 -10 -2
-6 4 -15 14 -18 13 -5 15 -4 7 4 -14 14 -6 52 9 43 6 -3 7 -1 3 5 -4 6 5 60
19 119 15 59 53 221 85 359 77 332 115 405 257 500 115 76 88 74 887 74 766 0
757 1 860 -52 56 -29 141 -112 181 -178 38 -63 53 -113 144 -505 75 -324 74
-318 48 -352 -12 -16 -15 -22 -6 -16 12 10 18 10 29 0 12 -10 12 -9 3 3 -7 10
-8 21 -3 30 5 8 7 17 5 20 -2 3 37 5 85 5 48 0 86 -3 84 -6 -2 -4 4 -13 13
-20 9 -8 14 -9 11 -4 -13 22 18 44 68 46 27 1 53 4 58 7 5 3 24 6 42 8 113 10
202 150 127 200 -23 15 -55 19 -181 24 -153 5 -169 9 -173 45 -1 18 -7 47 -39
185 -17 74 -38 167 -46 205 -43 202 -191 384 -389 480 -146 72 -112 69 -895
71 -388 1 -727 -2 -755 -7z"/>
<path d="M5716 6068 c-138 -145 -149 -164 -126 -209 11 -19 23 -19 342 -19
182 1 333 -2 337 -6 3 -4 -2 -4 -11 -1 -10 4 -18 2 -18 -3 0 -6 -123 -11 -322
-12 l-323 -3 330 -5 c215 -3 333 -2 337 5 5 6 8 4 8 -5 0 -13 2 -13 9 -1 7 10
3 24 -12 45 -11 16 -15 26 -8 22 10 -7 11 -4 2 12 -21 40 -25 157 -7 212 10
29 15 54 13 56 -2 3 -40 6 -83 9 -83 4 -91 5 -219 30 -44 8 -87 15 -97 15 -9
0 -77 -64 -152 -142z"/>
<path d="M7000 5809 c0 -5 5 -7 10 -4 6 3 10 8 10 11 0 2 -4 4 -10 4 -5 0 -10
-5 -10 -11z"/>
<path d="M9558 5813 c23 -2 61 -2 85 0 23 2 4 4 -43 4 -47 0 -66 -2 -42 -4z"/>
</g>
</svg>
