<?xml version="1.0" encoding="UTF-8"?>
<svg version="1.1" xmlns="http://www.w3.org/2000/svg" width="327" height="330">
<path d="M0 0 C107.91 0 215.82 0 327 0 C327 108.9 327 217.8 327 330 C219.09 330 111.18 330 0 330 C0 221.1 0 112.2 0 0 Z " fill="#010101" transform="translate(0,0)"/>
<path d="M0 0 C107.91 0 215.82 0 327 0 C327 108.9 327 217.8 327 330 C219.09 330 111.18 330 0 330 C0 221.1 0 112.2 0 0 Z M130 22 C128.95247559 22.26538574 128.95247559 22.26538574 127.88378906 22.53613281 C103.89587217 28.73381415 83.41088113 40.09039976 65.25390625 56.95703125 C63.68696863 58.37732306 62.0669139 59.74027645 60.41015625 61.0546875 C41.26089067 76.51065875 29.2681561 102.64399692 22.25 125.5625 C22.05116211 126.19792725 21.85232422 126.83335449 21.64746094 127.48803711 C18.15152065 139.48247032 17.55704693 151.89780566 17.5625 164.3125 C17.56176483 165.04823242 17.56102966 165.78396484 17.56027222 166.54199219 C17.61380506 187.10748035 21.43450446 206.25631448 30 225 C30.46212891 226.03326416 30.46212891 226.03326416 30.93359375 227.08740234 C35.5257892 237.23644012 41.17684804 246.21053727 48 255 C48.77730469 256.00160156 49.55460937 257.00320313 50.35546875 258.03515625 C69.28063537 281.7160446 95.76758492 298.9444968 125 307 C125.6820752 307.19609863 126.36415039 307.39219727 127.06689453 307.59423828 C138.60592025 310.79066602 150.03082953 311.37151045 161.9375 311.375 C162.98704865 311.37785507 162.98704865 311.37785507 164.05780029 311.38076782 C173.19171694 311.37795409 182.01271394 310.67926404 191 309 C192.03398926 308.80897705 193.06797852 308.6179541 194.13330078 308.42114258 C222.42071865 302.91191798 246.26706487 288.51552079 267 269 C267.60070312 268.45214844 268.20140625 267.90429688 268.8203125 267.33984375 C285.02086835 252.00582926 296.09774577 230.89122518 303.25 210 C303.48420654 209.32541748 303.71841309 208.65083496 303.9597168 207.95581055 C308.17434074 195.07619783 309.49343886 182.64252266 309.39111328 169.19458008 C309.37508112 166.70012182 309.39103073 164.20729914 309.41015625 161.71289062 C309.42937338 147.64118694 308.14247761 133.40804408 303.375 120.0625 C303.12411621 119.33853027 302.87323242 118.61456055 302.61474609 117.86865234 C291.10617154 85.80267178 270.11364823 60.03644228 242 41 C241.19175781 40.44441406 240.38351563 39.88882813 239.55078125 39.31640625 C231.32013624 34.01604324 222.06243321 30.59882969 213 27 C211.99324219 26.58492187 210.98648438 26.16984375 209.94921875 25.7421875 C185.66638519 16.60464717 155.00976326 15.58065625 130 22 Z " fill="#FEFEFE" transform="translate(0,0)"/>
<path d="M0 0 C4.42622411 1.47540804 5.96713898 4.80765041 8.0625 8.6875 C8.40087891 9.28755859 8.73925781 9.88761719 9.08789062 10.50585938 C12.21749426 16.14156727 14.81075406 21.94861918 16.6875 28.125 C16.93886719 28.93195313 17.19023437 29.73890625 17.44921875 30.5703125 C18.02793551 33.12323324 18.09748243 35.39118458 18 38 C17.01 37.67 16.02 37.34 15 37 C13.42038841 36.88551523 11.83666148 36.82377068 10.25317383 36.79467773 C9.29240433 36.77473251 8.33163483 36.75478729 7.3417511 36.73423767 C6.30729355 36.71752518 5.272836 36.70081268 4.20703125 36.68359375 C2.61528328 36.6524221 2.61528328 36.6524221 0.99137878 36.62062073 C-2.40151437 36.55518762 -5.7944855 36.49626907 -9.1875 36.4375 C-11.48633622 36.39430886 -13.78516453 36.35069438 -16.08398438 36.30664062 C-21.7225736 36.1995126 -27.36124056 36.09773449 -33 36 C-33 35.34 -33 34.68 -33 34 C-31.64770508 32.66455078 -31.64770508 32.66455078 -29.70703125 31.0703125 C-24.61635079 26.73891617 -19.88470147 22.07079332 -15.16186523 17.34716797 C-13.67773808 15.86525263 -12.1857446 14.39156188 -10.69335938 12.91796875 C-9.73649105 11.96403103 -8.78009365 11.00962065 -7.82421875 10.0546875 C-6.96916748 9.20374512 -6.11411621 8.35280273 -5.2331543 7.47607422 C-3.09575328 5.10616921 -1.531275 2.79054515 0 0 Z " fill="#F6F6F6" transform="translate(227,115)"/>
<path d="M0 0 C-0.57414145 5.21455525 -1.79928531 9.84530553 -3.6875 14.75 C-4.08461182 15.79063599 -4.08461182 15.79063599 -4.48974609 16.85229492 C-10.57078771 32.39253506 -10.57078771 32.39253506 -17 37 C-21.70666542 32.34389581 -26.40558952 27.68008529 -31.09912109 23.01074219 C-32.69791772 21.42202543 -34.29850169 19.83510531 -35.90087891 18.25 C-38.19902251 15.97601746 -40.49073622 13.69572688 -42.78125 11.4140625 C-43.50308472 10.70255035 -44.22491943 9.99103821 -44.96862793 9.25796509 C-45.62931274 8.59743134 -46.28999756 7.93689758 -46.97070312 7.25634766 C-47.55694458 6.67454742 -48.14318604 6.09274719 -48.74719238 5.49331665 C-50 4 -50 4 -50 2 C-49.42814972 1.98969254 -48.85629944 1.97938507 -48.26712036 1.96876526 C-42.33014214 1.86081685 -36.39331929 1.74620958 -30.45654297 1.62768555 C-28.23912803 1.58429922 -26.02167888 1.54262692 -23.80419922 1.50268555 C-20.62196528 1.44507246 -17.43990416 1.38135236 -14.2578125 1.31640625 C-13.26194122 1.29969376 -12.26606995 1.28298126 -11.24002075 1.26576233 C-10.31921722 1.24581711 -9.3984137 1.22587189 -8.44970703 1.20532227 C-7.6369632 1.18977798 -6.82421936 1.1742337 -5.98684692 1.15821838 C-3.71022201 0.97692414 -2.29432916 0 0 0 Z " fill="#FAFAFA" transform="translate(245,178)"/>
<path d="M0 0 C13.48872106 1.22624737 22.35309817 4.95288881 34 11 C32.93012423 14.20962732 32.41610306 14.69905837 29.875 16.6875 C27.24978204 18.83903356 24.99531357 21.05126067 22.80859375 23.64453125 C18.79542294 28.29538357 14.52795947 32.65577604 10.1875 37 C9.42501953 37.77472656 8.66253906 38.54945312 7.87695312 39.34765625 C7.14798828 40.07855469 6.41902344 40.80945313 5.66796875 41.5625 C5.01078857 42.22378906 4.3536084 42.88507813 3.67651367 43.56640625 C2 45 2 45 0 45 C0 30.15 0 15.3 0 0 Z " fill="#FAFAFA" transform="translate(173,84)"/>
<path d="M0 0 C4.53769823 3.88945562 8.86245751 7.72171969 13.046875 11.94921875 C13.58475647 12.48851517 14.12263794 13.02781158 14.67681885 13.58345032 C16.37027595 15.28243364 18.06019998 16.98488014 19.75 18.6875 C20.89690057 19.83942657 22.0440342 20.99112116 23.19140625 22.14257812 C25.28757427 24.24686357 27.38243866 26.35242663 29.47558594 28.4597168 C31.31395759 30.30964495 33.15409202 32.15760284 35 34 C27.47755929 38.13674632 20.12412449 41.53481638 11.875 43.9375 C11.15320557 44.14850342 10.43141113 44.35950684 9.68774414 44.5769043 C6.29991384 45.51843431 3.54498573 46 0 46 C0 30.82 0 15.64 0 0 Z " fill="#FDFDFD" transform="translate(173,201)"/>
<path d="M0 0 C0.66 0 1.32 0 2 0 C2 14.52 2 29.04 2 44 C-4.54472925 42.54561572 -9.47168145 41.16064647 -15.25 38.1875 C-15.930625 37.85685547 -16.61125 37.52621094 -17.3125 37.18554688 C-18.31023437 36.6818457 -18.31023437 36.6818457 -19.328125 36.16796875 C-20.20839355 35.72360474 -20.20839355 35.72360474 -21.10644531 35.27026367 C-23.74300326 33.50156705 -25.80747602 31.28328975 -28 29 C-27.18732666 28.19256348 -26.37465332 27.38512695 -25.53735352 26.55322266 C-22.52880861 23.56274972 -19.52355141 20.5689915 -16.51928711 17.57421875 C-15.21745106 16.27741787 -13.91471977 14.98151508 -12.61108398 13.68652344 C-10.73967339 11.82721402 -8.87148418 9.9647206 -7.00390625 8.1015625 C-6.12576012 7.23115829 -6.12576012 7.23115829 -5.22987366 6.34317017 C-2.24837766 3.4504537 -2.24837766 3.4504537 0 0 Z " fill="#F9F9F9" transform="translate(142,201)"/>
<path d="M0 0 C0 14.52 0 29.04 0 44 C-3.56322296 42.21838852 -5.02786366 41.17459846 -7.609375 38.3671875 C-8.28226563 37.64273438 -8.95515625 36.91828125 -9.6484375 36.171875 C-10.34195313 35.41390625 -11.03546875 34.6559375 -11.75 33.875 C-19.98970579 23.81848378 -19.98970579 23.81848378 -30 16 C-28.67062326 12.01186978 -26.24428321 11.05824413 -22.75 9.125 C-22.12899414 8.77566406 -21.50798828 8.42632812 -20.86816406 8.06640625 C-6.15664639 0 -6.15664639 0 0 0 Z " fill="#F8F8F8" transform="translate(144,85)"/>
<path d="M0 0 C5.9693726 4.92284865 11.46209945 10.27590236 16.92749023 15.7421875 C18.45344834 17.26592513 19.98728145 18.7814443 21.52148438 20.296875 C22.49267457 21.2651367 23.46339558 22.23386929 24.43359375 23.203125 C25.31072021 24.07614258 26.18784668 24.94916016 27.09155273 25.84863281 C29 28 29 28 29 30 C15.8 30 2.6 30 -11 30 C-9.87408949 19.86680541 -9.87408949 19.86680541 -8.4765625 16.54296875 C-8.1775 15.82302734 -7.8784375 15.10308594 -7.5703125 14.36132812 C-7.10238281 13.2852832 -7.10238281 13.2852832 -6.625 12.1875 C-6.32078125 11.45080078 -6.0165625 10.71410156 -5.703125 9.95507812 C-4.15138947 6.28462677 -2.61675767 3.05823519 0 0 Z " fill="#F1F1F1" transform="translate(94,121)"/>
<path d="M0 0 C12.87 0 25.74 0 39 0 C37.01571759 3.96856482 34.74184552 6.56449486 31.66015625 9.640625 C31.13739609 10.16767029 30.61463593 10.69471558 30.07603455 11.23773193 C28.97324225 12.34625128 27.86784127 13.45218078 26.76000977 14.55566406 C25.06307143 16.24942964 23.37991904 17.95611895 21.69726562 19.6640625 C20.62320676 20.74039316 19.54836345 21.81594172 18.47265625 22.890625 C17.96944351 23.40304749 17.46623077 23.91546997 16.94776917 24.44342041 C13.34381192 28 13.34381192 28 10 28 C0 9.2 0 9.2 0 0 Z " fill="#F8F8F8" transform="translate(83,180)"/>
</svg>
