<?xml version="1.0" standalone="no"?>
<!DOCTYPE svg PUBLIC "-//W3C//DTD SVG 20010904//EN"
 "http://www.w3.org/TR/2001/REC-SVG-20010904/DTD/svg10.dtd">
<svg version="1.0" xmlns="http://www.w3.org/2000/svg"
 width="509.000000pt" height="480.000000pt" viewBox="0 0 509.000000 480.000000"
 preserveAspectRatio="xMidYMid meet">

<g transform="translate(0.000000,480.000000) scale(0.100000,-0.100000)"
fill="#000000" stroke="none">
<path d="M1911 3039 c-173 -71 -319 -135 -323 -142 -15 -24 -8 -66 14 -81 12
-9 28 -16 36 -16 7 0 157 59 334 132 348 143 366 154 337 207 -27 48 -58 41
-398 -100z"/>
<path d="M3061 3039 c-173 -71 -319 -135 -323 -142 -15 -24 -8 -66 14 -81 12
-9 28 -16 36 -16 7 0 157 59 334 132 348 143 366 154 337 207 -27 49 -58 41
-398 -100z"/>
</g>
</svg>
