<?xml version="1.0" encoding="UTF-8"?>
<svg version="1.1" xmlns="http://www.w3.org/2000/svg" width="437" height="388">
<path d="M0 0 C144.21 0 288.42 0 437 0 C437 128.04 437 256.08 437 388 C292.79 388 148.58 388 0 388 C0 259.96 0 131.92 0 0 Z " fill="#FEFEFE" transform="translate(0,0)"/>
<path d="M0 0 C1.35174185 -0.00464255 2.70348243 -0.00966906 4.05522156 -0.01504517 C7.68949788 -0.02802451 11.32375587 -0.03458426 14.95805168 -0.03905582 C17.23634453 -0.04200739 19.51463258 -0.04611566 21.79292297 -0.05056 C28.94444485 -0.06419065 36.0959555 -0.07388145 43.24748945 -0.07776189 C51.46147494 -0.08224571 59.67529429 -0.09982729 67.8892293 -0.12876248 C74.27007647 -0.15045 80.65087709 -0.16046976 87.03176069 -0.16180301 C90.82928878 -0.16284506 94.62665975 -0.16862511 98.42414856 -0.18662262 C101.99644414 -0.20322882 105.56846644 -0.20519884 109.14078712 -0.19648361 C111.05637749 -0.19535964 112.97195933 -0.2089754 114.88749695 -0.22323608 C132.225978 -0.14061533 146.03292419 5.79690726 159.06835938 17.16113281 C159.97134766 17.92296875 159.97134766 17.92296875 160.89257812 18.70019531 C168.97349756 26.07289933 174.05295821 35.84198155 177.14648438 46.20800781 C178.09052721 49.23214503 179.24706497 52.0675272 180.50585938 54.97363281 C182.99713648 60.80705397 184.98686287 66.74240992 186.95117188 72.76660156 C187.97705447 75.88370636 189.077024 78.94783583 190.25585938 82.00878906 C191.4019386 85.044797 192.48122197 88.10355886 193.56835938 91.16113281 C194.00921875 92.36898437 194.45007813 93.57683594 194.90429688 94.82128906 C196.06835937 98.16113281 196.06835937 98.16113281 196.66992188 100.59472656 C197.94909957 105.49187699 200.17249226 107.199018 204.44335938 109.91113281 C205.37921875 110.44222656 206.31507813 110.97332031 207.27929688 111.52050781 C211.94054037 114.26241575 215.47470568 117.26741537 218.63085938 121.66113281 C219.18902344 122.41394531 219.7471875 123.16675781 220.32226562 123.94238281 C225.63356802 133.73324003 226.6761214 143.09614728 226.63476562 154.09472656 C226.64001963 155.50375269 226.64630249 156.91277531 226.65354919 158.3217926 C226.66387726 161.25579538 226.65950318 164.18931087 226.64477539 167.12329102 C226.62759801 170.84620912 226.65110768 174.56758201 226.68626499 178.29032803 C226.70843547 181.19470557 226.70675079 184.09872445 226.69849968 187.00316048 C226.69730337 189.03074824 226.71703221 191.05831478 226.73744202 193.08580017 C226.60988041 205.92667776 222.97762323 216.75893837 214.06835938 226.16113281 C206.89952821 233.16113281 206.89952821 233.16113281 204.06835938 233.16113281 C204.08930664 234.39154297 204.11025391 235.62195313 204.13183594 236.88964844 C204.20457537 241.48165111 204.25028208 246.07360346 204.28808594 250.66601562 C204.30812434 252.6485248 204.3353629 254.63097544 204.37011719 256.61328125 C204.41897891 259.47312922 204.4414061 262.33219162 204.45898438 265.19238281 C204.47962952 266.06979126 204.50027466 266.94719971 204.52154541 267.85119629 C204.5240113 274.70934256 202.86455395 279.98475389 198.28710938 285.18457031 C197.71992188 285.63058594 197.15273438 286.07660156 196.56835938 286.53613281 C196.00117188 286.99761719 195.43398438 287.45910156 194.84960938 287.93457031 C190.41445142 290.98860452 186.82640768 291.46885595 181.48632812 291.46191406 C180.7539241 291.46619919 180.02152008 291.47048431 179.266922 291.47489929 C177.71954377 291.48063158 176.1721386 291.48115096 174.62475586 291.47680664 C172.27410051 291.47365725 169.92471768 291.49708077 167.57421875 291.52246094 C166.06575678 291.52473533 164.55729146 291.52543678 163.04882812 291.52441406 C162.35379684 291.53362381 161.65876556 291.54283356 160.94267273 291.55232239 C154.62468037 291.49334524 150.12600073 289.93818671 145.31835938 285.78613281 C133.40623849 271.88865845 139.06835938 260.76639681 139.06835938 239.16113281 C81.64835937 239.16113281 24.22835937 239.16113281 -34.93164062 239.16113281 C-34.93164062 251.70113281 -34.93164062 264.24113281 -34.93164062 277.16113281 C-42.81964778 288.99314354 -42.81964778 288.99314354 -49.93164062 291.16113281 C-52.58794497 291.38389673 -55.1381413 291.51229102 -57.79492188 291.53222656 C-58.54573532 291.54125504 -59.29654877 291.55028351 -60.07011414 291.55958557 C-61.65436848 291.57404816 -63.23868202 291.58296486 -64.82299805 291.58666992 C-67.22679164 291.59854709 -69.62799886 291.64774854 -72.03125 291.69824219 C-86.13598903 291.8501056 -86.13598903 291.8501056 -91.55395508 287.5534668 C-93.44334074 285.64399198 -94.98638035 283.78084472 -96.36914062 281.47363281 C-96.84222656 280.70664062 -97.3153125 279.93964844 -97.80273438 279.14941406 C-99.49411366 276.1704796 -100.05538906 274.49310893 -100.04516602 271.07861328 C-100.04509048 270.23789276 -100.04501495 269.39717224 -100.04493713 268.53097534 C-100.03977585 267.62259918 -100.03461456 266.71422302 -100.02929688 265.77832031 C-100.02788193 264.84891632 -100.02646698 263.91951233 -100.02500916 262.96194458 C-100.01940115 259.98664157 -100.0068473 257.01141317 -99.99414062 254.03613281 C-99.98912666 252.02181098 -99.98456357 250.00748797 -99.98046875 247.99316406 C-99.96942912 243.0491248 -99.95215911 238.10514146 -99.93164062 233.16113281 C-100.71337646 232.8669043 -101.4951123 232.57267578 -102.30053711 232.26953125 C-110.10918597 228.98000115 -115.55921927 220.40158617 -119.0078125 212.99145508 C-121.83556938 205.78235317 -121.50914707 198.36727445 -121.46289062 190.75097656 C-121.46559148 189.1725694 -121.46947881 187.59416386 -121.4744873 186.01576233 C-121.48035282 182.72348028 -121.47191448 179.43163516 -121.453125 176.1394043 C-121.43031782 171.94094855 -121.4434877 167.7435149 -121.46741486 163.5450964 C-121.48193721 160.29090306 -121.47723792 157.03694817 -121.46690369 153.78274727 C-121.4642551 152.2355493 -121.46743963 150.68832894 -121.4768219 149.14115715 C-121.5365213 136.53505882 -119.44229108 127.68406327 -110.93164062 118.16113281 C-99.7337989 107.16113281 -99.7337989 107.16113281 -93.93164062 107.16113281 C-93.83367187 106.61585938 -93.73570313 106.07058594 -93.63476562 105.50878906 C-92.83752318 101.48821291 -91.90633932 97.85853577 -90.11914062 94.16113281 C-88.07499538 89.83814417 -86.78411399 85.43715903 -85.49414062 80.84863281 C-83.80062586 74.86548323 -81.82160444 69.22463545 -79.31445312 63.52441406 C-77.49191107 59.0916211 -75.97689071 54.57154754 -74.43164062 50.03613281 C-67.31200894 29.44025881 -56.21175612 14.8296598 -36.54492188 4.79003906 C-24.96123354 -0.43201287 -12.49177582 0.01128173 0 0 Z " fill="#79ECC9" transform="translate(167.931640625,49.8388671875)"/>
<path d="M0 0 C1.66725632 -0.01496269 1.66725632 -0.01496269 3.36819458 -0.03022766 C4.57815598 -0.03089233 5.78811737 -0.03155701 7.03474426 -0.03224182 C8.31663635 -0.04056534 9.59852844 -0.04888885 10.91926575 -0.0574646 C14.42986854 -0.07937117 17.94038424 -0.08820374 21.45104766 -0.09329104 C23.64805293 -0.09694035 25.84503561 -0.1031835 28.04203224 -0.11029243 C35.71751018 -0.13477735 43.39292068 -0.14783594 51.06843567 -0.15138245 C58.20478043 -0.15501301 65.34069388 -0.18487599 72.47690696 -0.22678703 C78.61725548 -0.26157523 84.75746171 -0.27693238 90.89790803 -0.27762848 C94.55921672 -0.27841866 98.22008614 -0.28703584 101.88129234 -0.31562614 C105.97181048 -0.34685486 110.06131334 -0.33770669 114.15193176 -0.32521057 C115.351772 -0.34004486 116.55161224 -0.35487915 117.78781128 -0.37016296 C126.96811496 -0.29053172 134.26109041 1.83441892 140.85432434 8.46165466 C143.51984426 11.89837837 144.66427781 15.45409828 145.67854309 19.64915466 C146.43466745 22.33759682 147.49080758 24.799268 148.61628723 27.35081482 C150.05738336 30.81313727 151.14752874 34.392706 152.29182434 37.96165466 C154.39395049 44.42983716 156.72430407 50.68877972 159.53401184 56.89134216 C160.41682434 59.27415466 160.41682434 59.27415466 160.41682434 63.27415466 C144.24682434 63.27415466 128.07682434 63.27415466 111.41682434 63.27415466 C111.74682434 62.28415466 112.07682434 61.29415466 112.41682434 60.27415466 C114.94025476 59.15956526 117.37619975 58.21965032 119.97932434 57.33665466 C125.68286984 55.31106098 131.0825705 53.16354216 136.41682434 50.27415466 C136.45954534 48.60803561 136.45746266 46.94032581 136.41682434 45.27415466 C136.08682434 44.94415466 135.75682434 44.61415466 135.41682434 44.27415466 C130.46879562 44.61539802 126.86196049 45.42038778 122.29524231 47.45384216 C119.17784311 48.81522263 115.98149841 49.97047318 112.79182434 51.14915466 C111.38153398 51.67483667 109.9713796 52.20088363 108.56135559 52.72727966 C107.86477844 52.98702576 107.16820129 53.24677185 106.45051575 53.51438904 C103.4563871 54.63296387 100.4664034 55.76188837 97.47932434 56.89915466 C96.5215509 57.26267029 95.56377747 57.62618591 94.57698059 58.00071716 C91.59978103 59.12403431 91.59978103 59.12403431 89.64717102 60.25978088 C82.56353416 64.00066783 75.84169102 63.78877561 67.97541809 63.66477966 C66.59823434 63.65730383 65.22103982 63.65161725 63.84384155 63.64762878 C60.24825303 63.63247757 56.65332802 63.59328993 53.05799866 63.54881287 C49.37756827 63.50763037 45.69702892 63.48956915 42.01643372 63.46946716 C34.81626397 63.42678255 27.61663771 63.35866278 20.41682434 63.27415466 C20.41682434 62.28415466 20.41682434 61.29415466 20.41682434 60.27415466 C23.69190346 58.83311985 26.88936751 57.44615146 30.29182434 56.33665466 C37.34874116 54.17536475 37.34874116 54.17536475 43.41682434 50.27415466 C43.58349101 47.77415466 43.58349101 47.77415466 43.41682434 45.27415466 C43.08682434 44.94415466 42.75682434 44.61415466 42.41682434 44.27415466 C33.4696759 44.68084323 25.02289584 49.00994781 17.04182434 52.77415466 C11.50844151 55.35423639 5.80375634 57.22170175 -0.00505066 59.06321716 C-3.57805494 60.1653155 -3.57805494 60.1653155 -6.66520691 61.91087341 C-12.23236076 64.3608586 -18.57277897 63.58329492 -24.52067566 63.46165466 C-25.77686707 63.44811951 -27.03305847 63.43458435 -28.32731628 63.42063904 C-31.41304844 63.38544057 -34.4978859 63.33619772 -37.58317566 63.27415466 C-35.19003755 54.8827648 -35.19003755 54.8827648 -34.14567566 51.33665466 C-33.92008972 50.56450623 -33.69450378 49.79235779 -33.46208191 48.99681091 C-32.29290206 45.37495154 -30.94073939 41.82839862 -29.58317566 38.27415466 C-29.27194763 37.45568054 -28.9607196 36.63720642 -28.64006042 35.79393005 C-27.27727836 32.212152 -25.91051986 28.63189493 -24.54411316 25.05149841 C-24.20637878 24.16591248 -23.86864441 23.28032654 -23.52067566 22.36790466 C-23.18954773 21.50697205 -22.8584198 20.64603943 -22.51725769 19.75901794 C-21.92091004 18.17260228 -21.34656454 16.57762236 -20.80143738 14.97288513 C-19.39210464 10.87188799 -18.08976043 8.1491594 -14.70817566 5.39915466 C-13.72204285 4.56770935 -13.72204285 4.56770935 -12.71598816 3.71946716 C-8.5758619 0.9138871 -4.96881006 0.02399056 0 0 Z " fill="#FCFEFD" transform="translate(158.5831756591797,90.72584533691406)"/>
<path d="M0 0 C0.70251892 -0.0065712 1.40503784 -0.0131424 2.12884521 -0.01991272 C4.46455991 -0.03969626 6.80021003 -0.05132188 9.13598633 -0.0612793 C10.33144294 -0.06739259 10.33144294 -0.06739259 11.55105019 -0.07362938 C15.77247486 -0.09451565 19.99386681 -0.10880398 24.21533203 -0.11816406 C28.5722819 -0.12920997 32.9287184 -0.163581 37.28548717 -0.20333576 C40.63730299 -0.22951648 43.98899707 -0.23785736 47.34090614 -0.24144554 C48.94643925 -0.24631091 50.55196693 -0.25792359 52.15740013 -0.27648354 C54.41002991 -0.30089818 56.66134022 -0.29990604 58.9140625 -0.29296875 C60.19455978 -0.29883499 61.47505707 -0.30470123 62.7943573 -0.31074524 C66.90467576 0.26432766 69.07200413 1.59299067 72.28051758 4.17700195 C74.38142119 8.37880917 73.54839239 13.82112006 73.57568359 18.44335938 C73.59286763 20.47180225 73.63675133 22.49860189 73.6809082 24.52661133 C73.68928711 25.80987305 73.69766602 27.09313477 73.70629883 28.4152832 C73.72088135 29.59131104 73.73546387 30.76733887 73.75048828 31.97900391 C73.18408151 35.83321805 72.02509347 37.4590935 69.28051758 40.17700195 C65.78457617 41.34231576 63.00803596 41.32551633 59.31811523 41.35400391 C58.61369797 41.3605751 57.9092807 41.3671463 57.18351746 41.37391663 C54.85387055 41.39361739 52.52428795 41.40530388 50.19458008 41.4152832 C49.00000246 41.42139649 49.00000246 41.42139649 47.78129196 41.42763329 C43.56749482 41.44847852 39.3537301 41.4627879 35.13989258 41.47216797 C30.78962879 41.48323993 26.43987545 41.51765285 22.08979225 41.55733967 C18.7423101 41.58348867 15.39495003 41.59185816 12.04737473 41.59544945 C10.44380616 41.60031849 8.84024316 41.61194163 7.23677444 41.63048744 C4.99134081 41.65484767 2.74723442 41.65392059 0.50170898 41.64697266 C-1.41331924 41.65577202 -1.41331924 41.65577202 -3.36703491 41.66474915 C-7.31473434 41.09039882 -8.9530407 40.0049677 -11.71948242 37.17700195 C-13.52356857 31.76474351 -13.03211446 25.96614722 -13.09448242 20.30200195 C-13.13186523 19.02196289 -13.16924805 17.74192383 -13.20776367 16.4230957 C-13.29451595 7.19843641 -13.29451595 7.19843641 -11.61499023 4.21508789 C-10.25854492 2.85668945 -10.25854492 2.85668945 -7.71948242 1.17700195 C-5.82657188 -0.71590859 -2.51537499 0.01939796 0 0 Z " fill="#FEFEFE" transform="translate(189.719482421875,205.822998046875)"/>
<path d="M0 0 C1.99702945 -0.00966383 3.99391692 -0.04085079 5.99072266 -0.07226562 C13.74834267 -0.10370481 19.4314686 -0.09428107 25.72900391 4.74804688 C29.11449173 8.61984787 30.7701206 11.84363114 30.99072266 17.04101562 C30.44942301 22.38753674 27.45094795 25.94119432 23.61572266 29.40820312 C17.95665217 33.54137669 11.52354847 33.06858232 4.82226562 32.91259766 C2.63994657 32.86516657 0.46249333 32.8715252 -1.72021484 32.88476562 C-8.767281 32.82873514 -13.46721848 32.76942565 -19.23193359 28.24023438 C-22.33298303 24.74253908 -24.05264421 21.35581276 -24.79443359 16.74023438 C-23.87435004 11.01527005 -21.88382143 6.81154231 -17.66943359 2.80273438 C-12.17739796 -0.71780129 -6.31795462 0.01849609 0 0 Z " fill="#F7FDF6" transform="translate(103.23193359375,194.759765625)"/>
<path d="M0 0 C1.2890625 -0.01998047 2.578125 -0.03996094 3.90625 -0.06054688 C11.87044244 -0.05645848 18.26676373 0.21022583 24.25805664 6.02148438 C27.70198136 9.90397283 28.44417581 13.83443148 28.1796875 18.9375 C27.01222324 24.19931074 23.73760987 27.89188613 19.46728516 31.01611328 C14.32290298 33.58874625 8.54770366 32.91676006 2.90551758 32.88354492 C0.69713027 32.8750371 -1.50866485 32.90381589 -3.71679688 32.93554688 C-5.13281173 32.93715934 -6.54883113 32.93658049 -7.96484375 32.93359375 C-9.24222412 32.93544678 -10.51960449 32.9372998 -11.83569336 32.93920898 C-17.40471417 32.14978098 -21.98023556 28.84309422 -25.44921875 24.40234375 C-27.54717629 19.94971657 -27.27098743 15.17797249 -26.375 10.4375 C-20.93330847 -0.14872585 -10.55512102 -0.05770692 0 0 Z " fill="#FCFEF9" transform="translate(333.375,194.5625)"/>
<path d="M0 0 C3.7123136 2.22875549 6.59176074 4.26357096 8.87109375 8.0234375 C9.77100507 12.9364669 9.38072264 16.98530459 7.18359375 21.4609375 C3.23563789 25.8356994 0.42809579 27.22687106 -5.44140625 27.6484375 C-11.04849947 27.527039 -13.7644157 25.62168731 -17.66796875 21.75 C-20.75725899 18.09902063 -20.69580468 14.5095399 -20.68359375 9.86328125 C-19.84524044 5.57114845 -17.55030312 3.83790724 -14.171875 1.265625 C-9.70622102 -1.44962924 -4.85684403 -2.22791011 0 0 Z " fill="#FFF244" transform="translate(110.12890625,196.9765625)"/>
<path d="M0 0 C3.89543882 1.59127403 7.80901978 3.24766604 10.2265625 6.8046875 C11.85806498 11.43551778 11.8649616 16.20106493 11 21 C8.6055728 24.33219242 5.62258573 26.18870714 2 28 C-2.81273599 28.71299792 -7.20183234 29.08686716 -11.46875 26.5078125 C-14.09985271 24.21036412 -16.42731548 22.14536903 -18 19 C-18.3074512 13.99079504 -18.60022101 8.87745228 -15.21875 4.91015625 C-10.1207367 1.13282393 -6.45587946 -0.61484566 0 0 Z " fill="#FFF245" transform="translate(339,196)"/>
<path d="M0 0 C2 2 2 2 2.375 4.4375 C2 7 2 7 0.44921875 8.48046875 C-2.71996103 10.44667439 -6.0632518 11.64426958 -9.5625 12.875 C-14.38813639 14.62116143 -19.10599309 16.42841863 -23.75 18.625 C-28.43989063 20.82910776 -33.20227811 22.45151834 -38.13671875 24.01953125 C-40.83889632 24.94483353 -43.35734256 26.0305226 -45.9375 27.25 C-49.06984521 28.68565822 -51.50297768 29.74179261 -55 29 C-57 26 -57 26 -56.9375 23.5 C-55.66145005 20.09720014 -54.25057693 19.55462375 -51 18 C-44.5979992 15.19482223 -38.11212038 12.60096808 -31.625 10 C-30.53960937 9.56171875 -29.45421875 9.1234375 -28.3359375 8.671875 C-22.86810039 6.47945722 -17.40782393 4.38413709 -11.79345703 2.59643555 C-9.81546459 1.96733492 -9.81546459 1.96733492 -7.25 0.8125 C-4.65717323 -0.12379856 -2.73625141 -0.29581096 0 0 Z " fill="#0B0C0C" transform="translate(294,134)"/>
<path d="M0 0 C2 2 2 2 2.4375 4.375 C2 7 2 7 -0.0625 9.125 C-4.71042754 12.09176226 -9.29970499 13.82856436 -14.5625 15.3125 C-18.7231207 16.51557105 -22.59909148 18.06714579 -26.5625 19.8125 C-32.025551 22.19921163 -37.52133265 24.40182322 -43.125 26.4375 C-44.20890015 26.84415894 -44.20890015 26.84415894 -45.31469727 27.2590332 C-48.96890821 28.5613662 -51.3226136 29.33185877 -55 28 C-55.66 27.34 -56.32 26.68 -57 26 C-56.8828125 23.53125 -56.8828125 23.53125 -56 21 C-50.60593241 16.68474593 -43.10505264 14.95255386 -36.60107422 12.87280273 C-31.85100584 11.33903852 -27.40666409 9.46143773 -22.8984375 7.3359375 C-19.34172591 5.69659065 -15.74801505 4.17351599 -12.125 2.6875 C-11.49400391 2.42074463 -10.86300781 2.15398926 -10.21289062 1.87915039 C-6.70355834 0.45547383 -3.79365805 -0.50990028 0 0 Z " fill="#0A0C0B" transform="translate(201,134)"/>
<path d="M0 0 C1.98615712 -0.01712412 3.97202492 -0.06100974 5.95776367 -0.10522461 C14.01067638 -0.15839265 20.39221307 -0.00573056 26.45532227 5.87963867 C29.90084562 9.7606191 30.64214761 13.69260379 30.37768555 18.79516602 C29.20969874 24.05933189 25.93084469 27.73491796 21.6784668 30.88256836 C18.03567716 32.68465291 15.38938245 32.6365969 11.3347168 32.58813477 C10.27991875 32.5817675 10.27991875 32.5817675 9.20381165 32.57527161 C6.97230674 32.55856661 4.74172692 32.52093216 2.51049805 32.48266602 C0.99163094 32.46760849 -0.52725041 32.45392195 -2.04614258 32.44165039 C-5.7567263 32.40869075 -9.46677373 32.35696618 -13.17700195 32.29516602 C-13.17700195 31.96516602 -13.17700195 31.63516602 -13.17700195 31.29516602 C-12.50644775 31.29105713 -11.83589355 31.28694824 -11.14501953 31.28271484 C-8.09229805 31.24971958 -5.04155665 31.17906981 -1.98950195 31.10766602 C-0.9344043 31.10186523 0.12069336 31.09606445 1.20776367 31.09008789 C7.51327919 30.9764584 7.51327919 30.9764584 12.8737793 27.93188477 C13.51702148 27.06176758 14.16026367 26.19165039 14.82299805 25.29516602 C15.41467773 24.81950195 16.00635742 24.34383789 16.6159668 23.85375977 C18.48155979 21.44479017 18.18356146 19.34868913 18.13549805 16.35766602 C18.12969727 14.79725586 18.12969727 14.79725586 18.1237793 13.20532227 C17.81985141 10.26472126 17.34963083 8.78308099 15.82299805 6.29516602 C10.44712386 2.09212061 4.70871444 1.74920529 -1.86450195 1.98266602 C-2.69272461 1.99233398 -3.52094727 2.00200195 -4.37426758 2.01196289 C-8.41823153 2.0864314 -12.23364943 2.30732007 -16.17700195 3.29516602 C-13.68608558 -1.68666673 -4.80306793 0.02879608 0 0 Z " fill="#F1FCF5" transform="translate(331.177001953125,194.704833984375)"/>
<path d="M0 0 C0 0.66 0 1.32 0 2 C19.14 2.33 38.28 2.66 58 3 C58 3.33 58 3.66 58 4 C37.54 4 17.08 4 -4 4 C-4 3.01 -4 2.02 -4 1 C-2 0 -2 0 0 0 Z " fill="#D7F3EA" transform="translate(183,150)"/>
<path d="M0 0 C0.99 0 1.98 0 3 0 C3 0.66 3 1.32 3 2 C21.81 2 40.62 2 60 2 C60 2.33 60 2.66 60 3 C39.87 3 19.74 3 -1 3 C-0.67 2.01 -0.34 1.02 0 0 Z " fill="#83EACB" transform="translate(176,152)"/>
<path d="M0 0 C0.56732849 0.16076523 1.13465698 0.32153046 1.71917725 0.48716736 C4.04157658 1.00934831 6.11582867 1.1575023 8.49316406 1.20532227 C9.37377502 1.22526749 10.25438599 1.24521271 11.16168213 1.26576233 C12.10348328 1.28247482 13.04528442 1.29918732 14.015625 1.31640625 C15.47207428 1.3475779 15.47207428 1.3475779 16.95794678 1.37937927 C20.05522685 1.44468862 23.15259068 1.50367323 26.25 1.5625 C28.35157111 1.60570292 30.4531338 1.64931778 32.5546875 1.69335938 C37.70303948 1.80035098 42.85147558 1.9016709 48 2 C48 2.33 48 2.66 48 3 C31.83 3 15.66 3 -1 3 C-0.67 2.01 -0.34 1.02 0 0 Z " fill="#DAF6ED" transform="translate(271,151)"/>
</svg>
